<?xml version="1.0" encoding="utf-8"?>
<!-- Generator: Adobe Illustrator 22.0.1, SVG Export Plug-In . SVG Version: 6.00 Build 0)  -->
<svg version="1.1" id="Layer_1" xmlns="http://www.w3.org/2000/svg" xmlns:xlink="http://www.w3.org/1999/xlink" x="0px" y="0px"
	 viewBox="0 0 125.3 112.3" style="enable-background:new 0 0 125.3 112.3;" xml:space="preserve">
<style type="text/css">
	.st0{fill:#0079B9;}
	.st1{fill:#FFFFFF;}
	.st2{fill:#E81B00;}
	.st3{fill:#801E00;}
	.st4{fill:#FFCD3F;}
</style>
<g>
	<g>
		<path class="st0" d="M39.2,22C39.2,22,39.3,22,39.2,22C39.3,22,39.2,22,39.2,22C39.2,22,39.2,22,39.2,22C39.2,22,39.2,22,39.2,22z
			"/>
		<path class="st0" d="M44.4,22C44.4,22,44.4,22,44.4,22C44.4,22,44.4,22,44.4,22C44.4,22,44.4,22,44.4,22C44.4,22,44.4,22,44.4,22z
			"/>
		<path class="st0" d="M49.5,22C49.6,22,49.6,22,49.5,22c0.1-0.1,0-0.1,0-0.1C49.5,21.9,49.5,22,49.5,22C49.5,22,49.5,22,49.5,22z"
			/>
		<circle class="st0" cx="54.7" cy="22" r="0.1"/>
		<path class="st0" d="M59.8,22.1C59.9,22.1,59.9,22,59.8,22.1c0.1-0.1,0-0.2,0-0.2C59.8,21.9,59.7,21.9,59.8,22.1
			C59.7,22,59.8,22.1,59.8,22.1z"/>
		<path class="st0" d="M65,22.1c0.1,0,0.1,0,0.1-0.1s0-0.1-0.1-0.1C64.9,21.9,64.9,21.9,65,22.1C64.9,22,64.9,22.1,65,22.1z"/>
		<path class="st0" d="M70.1,22.1C70.1,22.1,70.2,22,70.1,22.1c0.1-0.1,0-0.2,0-0.2C70,21.9,70,21.9,70.1,22.1
			C70,22,70,22.1,70.1,22.1z"/>
		<circle class="st0" cx="75.2" cy="22" r="0.1"/>
		<path class="st0" d="M80.4,22C80.4,22,80.4,22,80.4,22c0.1-0.1,0-0.1,0-0.1C80.3,21.9,80.3,22,80.4,22C80.3,22,80.3,22,80.4,22z"
			/>
		<path class="st0" d="M85.5,22C85.5,22,85.6,22,85.5,22C85.6,22,85.5,22,85.5,22C85.5,22,85.5,22,85.5,22C85.5,22,85.5,22,85.5,22z
			"/>
		<path class="st0" d="M90.7,22C90.7,22,90.7,22,90.7,22C90.7,22,90.7,22,90.7,22C90.7,22,90.7,22,90.7,22C90.7,22,90.7,22,90.7,22z
			"/>
		<path class="st0" d="M26.4,27.1C26.4,27.1,26.4,27.1,26.4,27.1C26.4,27.1,26.4,27.1,26.4,27.1C26.4,27.1,26.4,27.1,26.4,27.1
			C26.4,27.1,26.4,27.1,26.4,27.1z"/>
		<path class="st0" d="M31.5,27.2C31.6,27.2,31.6,27.2,31.5,27.2c0.1-0.1,0-0.1,0-0.1C31.5,27.1,31.5,27.1,31.5,27.2
			C31.5,27.2,31.5,27.2,31.5,27.2z"/>
		<path class="st0" d="M36.7,27.2c0.1,0,0.1-0.1,0.1-0.1c0-0.1-0.1-0.1-0.1-0.1c-0.1,0-0.1,0.1-0.1,0.1
			C36.6,27.2,36.6,27.2,36.7,27.2z"/>
		<path class="st0" d="M41.8,27.3c0.1,0,0.2-0.1,0.2-0.2c0-0.1-0.1-0.2-0.2-0.2c-0.1,0-0.2,0.1-0.2,0.2
			C41.6,27.2,41.7,27.3,41.8,27.3z"/>
		<path class="st0" d="M47,27.4c0.1,0,0.2-0.1,0.2-0.2c0-0.1-0.1-0.2-0.2-0.2c-0.1,0-0.2,0.1-0.2,0.2C46.7,27.3,46.8,27.4,47,27.4z"
			/>
		<path class="st0" d="M52.1,27.4c0.1,0,0.3-0.1,0.3-0.3c0-0.1-0.1-0.3-0.3-0.3c-0.2,0-0.3,0.1-0.3,0.3
			C51.8,27.3,51.9,27.4,52.1,27.4z"/>
		<path class="st0" d="M57.2,27.4c0.2,0,0.3-0.1,0.3-0.3c0-0.2-0.1-0.3-0.3-0.3c-0.2,0-0.3,0.1-0.3,0.3
			C56.9,27.3,57.1,27.4,57.2,27.4z"/>
		<path class="st0" d="M62.4,27.4c0.2,0,0.3-0.1,0.3-0.3c0-0.2-0.1-0.3-0.3-0.3c-0.2,0-0.3,0.1-0.3,0.3
			C62.1,27.3,62.2,27.4,62.4,27.4z"/>
		<path class="st0" d="M67.5,27.4c0.2,0,0.3-0.1,0.3-0.3c0-0.2-0.1-0.3-0.3-0.3c-0.2,0-0.3,0.1-0.3,0.3
			C67.2,27.3,67.4,27.4,67.5,27.4z"/>
		<path class="st0" d="M72.7,27.4c0.1,0,0.3-0.1,0.3-0.3c0-0.1-0.1-0.3-0.3-0.3s-0.3,0.1-0.3,0.3C72.4,27.3,72.5,27.4,72.7,27.4z"/>
		<path class="st0" d="M77.8,27.4c0.1,0,0.2-0.1,0.2-0.2c0-0.1-0.1-0.2-0.2-0.2c-0.1,0-0.2,0.1-0.2,0.2
			C77.6,27.3,77.7,27.4,77.8,27.4z"/>
		<path class="st0" d="M83,27.3c0.1,0,0.2-0.1,0.2-0.2C83.1,27,83,27,83,27c-0.1,0-0.2,0.1-0.2,0.2C82.8,27.2,82.9,27.3,83,27.3z"/>
		<path class="st0" d="M88.1,27.2c0.1,0,0.1-0.1,0.1-0.1c0-0.1-0.1-0.1-0.1-0.1C88,27,88,27.1,88,27.1C88,27.2,88,27.2,88.1,27.2z"
			/>
		<path class="st0" d="M93.2,27.2C93.3,27.2,93.3,27.2,93.2,27.2c0.1-0.1,0-0.1,0-0.1C93.2,27.1,93.2,27.1,93.2,27.2
			C93.2,27.2,93.2,27.2,93.2,27.2z"/>
		<path class="st0" d="M98.4,27.1C98.4,27.1,98.4,27.1,98.4,27.1C98.4,27.1,98.4,27.1,98.4,27.1C98.4,27.1,98.4,27.1,98.4,27.1
			C98.4,27.1,98.4,27.1,98.4,27.1z"/>
		<path class="st0" d="M23.8,32.3C23.8,32.3,23.9,32.3,23.8,32.3c0.1-0.1,0-0.1,0-0.1S23.8,32.2,23.8,32.3
			C23.8,32.3,23.8,32.3,23.8,32.3z"/>
		<path class="st0" d="M29,32.4c0.1,0,0.1-0.1,0.1-0.1c0-0.1-0.1-0.1-0.1-0.1c-0.1,0-0.1,0.1-0.1,0.1C28.8,32.3,28.9,32.4,29,32.4z"
			/>
		<path class="st0" d="M34.1,32.5c0.1,0,0.2-0.1,0.2-0.2c0-0.1-0.1-0.2-0.2-0.2c-0.1,0-0.2,0.1-0.2,0.2C33.9,32.4,34,32.5,34.1,32.5
			z"/>
		<path class="st0" d="M39.2,32.6c0.2,0,0.3-0.1,0.3-0.3c0-0.2-0.1-0.3-0.3-0.3c-0.2,0-0.3,0.1-0.3,0.3
			C38.9,32.4,39.1,32.6,39.2,32.6z"/>
		<path class="st0" d="M44.4,32.7c0.2,0,0.4-0.2,0.4-0.4s-0.2-0.4-0.4-0.4c-0.2,0-0.4,0.2-0.4,0.4S44.2,32.7,44.4,32.7z"/>
		<path class="st0" d="M49.5,32.8c0.3,0,0.5-0.2,0.5-0.5c0-0.3-0.2-0.5-0.5-0.5c-0.3,0-0.5,0.2-0.5,0.5C49,32.5,49.2,32.8,49.5,32.8
			z"/>
		<path class="st0" d="M54.7,32.8c0.3,0,0.6-0.2,0.6-0.6c0-0.3-0.2-0.6-0.6-0.6c-0.3,0-0.6,0.2-0.6,0.6
			C54.1,32.6,54.4,32.8,54.7,32.8z"/>
		<path class="st0" d="M59.8,32.9c0.3,0,0.6-0.3,0.6-0.6c0-0.3-0.3-0.6-0.6-0.6c-0.3,0-0.6,0.3-0.6,0.6
			C59.2,32.6,59.5,32.9,59.8,32.9z"/>
		<path class="st0" d="M65,32.9c0.3,0,0.6-0.3,0.6-0.6c0-0.3-0.3-0.6-0.6-0.6c-0.3,0-0.6,0.3-0.6,0.6C64.3,32.6,64.6,32.9,65,32.9z"
			/>
		<path class="st0" d="M70.1,32.9c0.3,0,0.6-0.3,0.6-0.6c0-0.3-0.3-0.6-0.6-0.6c-0.3,0-0.6,0.3-0.6,0.6
			C69.5,32.6,69.8,32.9,70.1,32.9z"/>
		<path class="st0" d="M75.2,32.8c0.3,0,0.6-0.2,0.6-0.6c0-0.3-0.2-0.6-0.6-0.6c-0.3,0-0.6,0.2-0.6,0.6
			C74.7,32.6,74.9,32.8,75.2,32.8z"/>
		<path class="st0" d="M80.4,32.8c0.3,0,0.5-0.2,0.5-0.5c0-0.3-0.2-0.5-0.5-0.5c-0.3,0-0.5,0.2-0.5,0.5
			C79.9,32.5,80.1,32.8,80.4,32.8z"/>
		<path class="st0" d="M85.5,32.7c0.2,0,0.4-0.2,0.4-0.4c0-0.2-0.2-0.4-0.4-0.4c-0.2,0-0.4,0.2-0.4,0.4
			C85.1,32.5,85.3,32.7,85.5,32.7z"/>
		<path class="st0" d="M90.7,32.6c0.2,0,0.3-0.1,0.3-0.3c0-0.2-0.1-0.3-0.3-0.3c-0.2,0-0.3,0.1-0.3,0.3
			C90.4,32.4,90.5,32.6,90.7,32.6z"/>
		<path class="st0" d="M95.8,32.5c0.1,0,0.2-0.1,0.2-0.2c0-0.1-0.1-0.2-0.2-0.2c-0.1,0-0.2,0.1-0.2,0.2
			C95.6,32.4,95.7,32.5,95.8,32.5z"/>
		<path class="st0" d="M101,32.4c0.1,0,0.1-0.1,0.1-0.1c0-0.1-0.1-0.1-0.1-0.1c-0.1,0-0.1,0.1-0.1,0.1
			C100.8,32.3,100.9,32.4,101,32.4z"/>
		<path class="st0" d="M106.1,32.3C106.1,32.3,106.2,32.3,106.1,32.3c0.1-0.1,0-0.1,0-0.1C106.1,32.2,106,32.2,106.1,32.3
			C106,32.3,106.1,32.3,106.1,32.3z"/>
		<path class="st0" d="M11,37.4C11,37.4,11,37.4,11,37.4C11,37.4,11,37.4,11,37.4C10.9,37.4,10.9,37.4,11,37.4
			C10.9,37.4,10.9,37.4,11,37.4z"/>
		<circle class="st0" cx="16.1" cy="37.4" r="0.1"/>
		<path class="st0" d="M21.2,37.6c0.1,0,0.2-0.1,0.2-0.2c0-0.1-0.1-0.2-0.2-0.2c-0.1,0-0.2,0.1-0.2,0.2
			C21.1,37.5,21.1,37.6,21.2,37.6z"/>
		<path class="st0" d="M26.4,37.7c0.2,0,0.3-0.1,0.3-0.3c0-0.2-0.1-0.3-0.3-0.3c-0.2,0-0.3,0.1-0.3,0.3
			C26.1,37.6,26.2,37.7,26.4,37.7z"/>
		<path class="st0" d="M31.5,37.8c0.2,0,0.4-0.2,0.4-0.4c0-0.2-0.2-0.4-0.4-0.4c-0.2,0-0.4,0.2-0.4,0.4
			C31.1,37.7,31.3,37.8,31.5,37.8z"/>
		<path class="st0" d="M36.7,38c0.3,0,0.6-0.3,0.6-0.6c0-0.3-0.3-0.6-0.6-0.6c-0.3,0-0.6,0.3-0.6,0.6C36.1,37.7,36.4,38,36.7,38z"/>
		<path class="st0" d="M41.8,38.1c0.4,0,0.7-0.3,0.7-0.7c0-0.4-0.3-0.7-0.7-0.7c-0.4,0-0.7,0.3-0.7,0.7
			C41.1,37.8,41.4,38.1,41.8,38.1z"/>
		<path class="st0" d="M47,38.2c0.5,0,0.8-0.4,0.8-0.8c0-0.5-0.4-0.8-0.8-0.8c-0.5,0-0.8,0.4-0.8,0.8C46.1,37.9,46.5,38.2,47,38.2z"
			/>
		<path class="st0" d="M52.1,38.3c0.5,0,0.9-0.4,0.9-0.9c0-0.5-0.4-0.9-0.9-0.9c-0.5,0-0.9,0.4-0.9,0.9
			C51.2,37.9,51.6,38.3,52.1,38.3z"/>
		<path class="st0" d="M57.2,38.4c0.5,0,1-0.4,1-1c0-0.5-0.4-1-1-1c-0.5,0-1,0.4-1,1C56.3,38,56.7,38.4,57.2,38.4z"/>
		<path class="st0" d="M62.4,38.4c0.6,0,1-0.5,1-1c0-0.6-0.5-1-1-1c-0.6,0-1,0.5-1,1C61.4,38,61.8,38.4,62.4,38.4z"/>
		<path class="st0" d="M67.5,38.4c0.5,0,1-0.4,1-1c0-0.5-0.4-1-1-1c-0.5,0-1,0.4-1,1C66.5,38,67,38.4,67.5,38.4z"/>
		<path class="st0" d="M72.7,38.3c0.5,0,0.9-0.4,0.9-0.9c0-0.5-0.4-0.9-0.9-0.9c-0.5,0-0.9,0.4-0.9,0.9
			C71.7,37.9,72.2,38.3,72.7,38.3z"/>
		<path class="st0" d="M77.8,38.2c0.5,0,0.8-0.4,0.8-0.8c0-0.5-0.4-0.8-0.8-0.8c-0.5,0-0.8,0.4-0.8,0.8C77,37.9,77.4,38.2,77.8,38.2
			z"/>
		<path class="st0" d="M83,38.1c0.4,0,0.7-0.3,0.7-0.7c0-0.4-0.3-0.7-0.7-0.7c-0.4,0-0.7,0.3-0.7,0.7C82.2,37.8,82.6,38.1,83,38.1z"
			/>
		<path class="st0" d="M88.1,38c0.3,0,0.6-0.3,0.6-0.6c0-0.3-0.3-0.6-0.6-0.6c-0.3,0-0.6,0.3-0.6,0.6C87.5,37.7,87.8,38,88.1,38z"/>
		<path class="st0" d="M93.2,37.8c0.2,0,0.4-0.2,0.4-0.4c0-0.2-0.2-0.4-0.4-0.4c-0.2,0-0.4,0.2-0.4,0.4C92.8,37.7,93,37.8,93.2,37.8
			z"/>
		<path class="st0" d="M98.4,37.7c0.2,0,0.3-0.1,0.3-0.3c0-0.2-0.1-0.3-0.3-0.3c-0.2,0-0.3,0.1-0.3,0.3
			C98.1,37.6,98.2,37.7,98.4,37.7z"/>
		<path class="st0" d="M103.5,37.6c0.1,0,0.2-0.1,0.2-0.2c0-0.1-0.1-0.2-0.2-0.2c-0.1,0-0.2,0.1-0.2,0.2
			C103.4,37.5,103.4,37.6,103.5,37.6z"/>
		<circle class="st0" cx="108.7" cy="37.4" r="0.1"/>
		<path class="st0" d="M113.8,37.4C113.8,37.4,113.8,37.4,113.8,37.4C113.8,37.4,113.8,37.4,113.8,37.4
			C113.8,37.4,113.8,37.4,113.8,37.4C113.8,37.4,113.8,37.4,113.8,37.4z"/>
		<circle class="st0" cx="13.5" cy="42.6" r="0.1"/>
		<path class="st0" d="M18.7,42.7c0.1,0,0.2-0.1,0.2-0.2c0-0.1-0.1-0.2-0.2-0.2c-0.1,0-0.2,0.1-0.2,0.2
			C18.5,42.7,18.6,42.7,18.7,42.7z"/>
		<path class="st0" d="M23.8,42.9c0.2,0,0.3-0.1,0.3-0.3c0-0.2-0.1-0.3-0.3-0.3c-0.2,0-0.3,0.1-0.3,0.3
			C23.5,42.7,23.6,42.9,23.8,42.9z"/>
		<path class="st0" d="M29,43.1c0.3,0,0.5-0.2,0.5-0.5c0-0.3-0.2-0.5-0.5-0.5c-0.3,0-0.5,0.2-0.5,0.5C28.5,42.8,28.7,43.1,29,43.1z"
			/>
		<circle class="st0" cx="34.1" cy="42.6" r="0.7"/>
		<path class="st0" d="M39.2,43.4c0.5,0,0.9-0.4,0.9-0.9s-0.4-0.9-0.9-0.9c-0.5,0-0.9,0.4-0.9,0.9S38.7,43.4,39.2,43.4z"/>
		<path class="st0" d="M44.4,43.6c0.6,0,1.1-0.5,1.1-1.1c0-0.6-0.5-1.1-1.1-1.1c-0.6,0-1.1,0.5-1.1,1.1
			C43.3,43.1,43.8,43.6,44.4,43.6z"/>
		<path class="st0" d="M49.5,43.8c0.7,0,1.2-0.5,1.2-1.2c0-0.7-0.5-1.2-1.2-1.2c-0.7,0-1.2,0.5-1.2,1.2
			C48.3,43.2,48.8,43.8,49.5,43.8z"/>
		<path class="st0" d="M54.7,43.9c0.7,0,1.4-0.6,1.4-1.4c0-0.7-0.6-1.4-1.4-1.4c-0.7,0-1.4,0.6-1.4,1.4
			C53.3,43.3,53.9,43.9,54.7,43.9z"/>
		<path class="st0" d="M59.8,44c0.8,0,1.4-0.6,1.4-1.4s-0.6-1.4-1.4-1.4c-0.8,0-1.4,0.6-1.4,1.4S59,44,59.8,44z"/>
		<path class="st0" d="M65,44c0.8,0,1.5-0.7,1.5-1.5c0-0.8-0.7-1.5-1.5-1.5c-0.8,0-1.5,0.7-1.5,1.5C63.5,43.4,64.1,44,65,44z"/>
		<circle class="st0" cx="70.1" cy="42.6" r="1.4"/>
		<path class="st0" d="M75.2,43.9c0.7,0,1.4-0.6,1.4-1.4c0-0.7-0.6-1.4-1.4-1.4c-0.7,0-1.4,0.6-1.4,1.4
			C73.9,43.3,74.5,43.9,75.2,43.9z"/>
		<path class="st0" d="M80.4,43.8c0.7,0,1.2-0.5,1.2-1.2c0-0.7-0.5-1.2-1.2-1.2c-0.7,0-1.2,0.5-1.2,1.2
			C79.2,43.2,79.7,43.8,80.4,43.8z"/>
		<path class="st0" d="M85.5,43.6c0.6,0,1.1-0.5,1.1-1.1c0-0.6-0.5-1.1-1.1-1.1c-0.6,0-1.1,0.5-1.1,1.1
			C84.5,43.1,84.9,43.6,85.5,43.6z"/>
		<path class="st0" d="M90.7,43.4c0.5,0,0.9-0.4,0.9-0.9s-0.4-0.9-0.9-0.9c-0.5,0-0.9,0.4-0.9,0.9S90.2,43.4,90.7,43.4z"/>
		<path class="st0" d="M95.8,43.2c0.4,0,0.7-0.3,0.7-0.7s-0.3-0.7-0.7-0.7c-0.4,0-0.7,0.3-0.7,0.7S95.4,43.2,95.8,43.2z"/>
		<path class="st0" d="M101,43.1c0.3,0,0.5-0.2,0.5-0.5c0-0.3-0.2-0.5-0.5-0.5c-0.3,0-0.5,0.2-0.5,0.5
			C100.5,42.8,100.7,43.1,101,43.1z"/>
		<circle class="st0" cx="106.1" cy="42.6" r="0.3"/>
		<path class="st0" d="M111.2,42.7c0.1,0,0.2-0.1,0.2-0.2c0-0.1-0.1-0.2-0.2-0.2c-0.1,0-0.2,0.1-0.2,0.2
			C111.1,42.7,111.1,42.7,111.2,42.7z"/>
		<path class="st0" d="M116.4,42.6C116.4,42.6,116.5,42.6,116.4,42.6c0.1-0.1,0-0.1,0-0.1C116.3,42.5,116.3,42.5,116.4,42.6
			C116.3,42.6,116.3,42.6,116.4,42.6z"/>
		<path class="st0" d="M5.8,47.7C5.8,47.7,5.9,47.7,5.8,47.7C5.9,47.7,5.8,47.7,5.8,47.7C5.8,47.7,5.8,47.7,5.8,47.7
			C5.8,47.7,5.8,47.7,5.8,47.7z"/>
		<path class="st0" d="M11,47.9c0.1,0,0.2-0.1,0.2-0.2c0-0.1-0.1-0.2-0.2-0.2c-0.1,0-0.2,0.1-0.2,0.2C10.8,47.8,10.9,47.9,11,47.9z"
			/>
		<path class="st0" d="M16.1,48c0.2,0,0.3-0.1,0.3-0.3c0-0.2-0.1-0.3-0.3-0.3c-0.2,0-0.3,0.1-0.3,0.3C15.8,47.9,15.9,48,16.1,48z"/>
		<path class="st0" d="M21.2,48.2c0.3,0,0.5-0.2,0.5-0.5c0-0.3-0.2-0.5-0.5-0.5c-0.3,0-0.5,0.2-0.5,0.5C20.7,48,21,48.2,21.2,48.2z"
			/>
		<path class="st0" d="M26.4,48.4c0.4,0,0.7-0.3,0.7-0.7c0-0.4-0.3-0.7-0.7-0.7c-0.4,0-0.7,0.3-0.7,0.7C25.7,48.1,26,48.4,26.4,48.4
			z"/>
		<path class="st0" d="M31.5,48.7c0.5,0,1-0.4,1-1c0-0.5-0.4-1-1-1c-0.5,0-1,0.4-1,1C30.6,48.2,31,48.7,31.5,48.7z"/>
		<path class="st0" d="M36.7,48.9c0.7,0,1.2-0.5,1.2-1.2c0-0.7-0.5-1.2-1.2-1.2c-0.7,0-1.2,0.5-1.2,1.2C35.5,48.4,36,48.9,36.7,48.9
			z"/>
		<path class="st0" d="M41.8,49.2c0.8,0,1.5-0.7,1.5-1.5s-0.7-1.5-1.5-1.5c-0.8,0-1.5,0.7-1.5,1.5S41,49.2,41.8,49.2z"/>
		<path class="st0" d="M47,49.4c0.9,0,1.7-0.7,1.7-1.7c0-0.9-0.7-1.7-1.7-1.7c-0.9,0-1.7,0.7-1.7,1.7C45.3,48.6,46,49.4,47,49.4z"/>
		<path class="st0" d="M52.1,49.6c1,0,1.9-0.8,1.9-1.9s-0.8-1.9-1.9-1.9c-1,0-1.9,0.8-1.9,1.9S51.1,49.6,52.1,49.6z"/>
		<path class="st0" d="M57.2,49.7c1.1,0,2-0.9,2-2c0-1.1-0.9-2-2-2c-1.1,0-2,0.9-2,2C55.3,48.8,56.2,49.7,57.2,49.7z"/>
		<path class="st0" d="M62.4,49.7c1.1,0,2-0.9,2-2c0-1.1-0.9-2-2-2c-1.1,0-2,0.9-2,2C60.4,48.8,61.3,49.7,62.4,49.7z"/>
		<path class="st0" d="M67.5,49.7c1.1,0,2-0.9,2-2c0-1.1-0.9-2-2-2c-1.1,0-2,0.9-2,2C65.6,48.8,66.4,49.7,67.5,49.7z"/>
		<path class="st0" d="M72.7,49.6c1,0,1.9-0.8,1.9-1.9s-0.8-1.9-1.9-1.9c-1,0-1.9,0.8-1.9,1.9S71.6,49.6,72.7,49.6z"/>
		<path class="st0" d="M77.8,49.4c0.9,0,1.7-0.7,1.7-1.7c0-0.9-0.7-1.7-1.7-1.7c-0.9,0-1.7,0.7-1.7,1.7
			C76.1,48.6,76.9,49.4,77.8,49.4z"/>
		<path class="st0" d="M83,49.2c0.8,0,1.5-0.7,1.5-1.5s-0.7-1.5-1.5-1.5c-0.8,0-1.5,0.7-1.5,1.5S82.1,49.2,83,49.2z"/>
		<path class="st0" d="M88.1,48.9c0.7,0,1.2-0.5,1.2-1.2c0-0.7-0.5-1.2-1.2-1.2c-0.7,0-1.2,0.5-1.2,1.2
			C86.9,48.4,87.4,48.9,88.1,48.9z"/>
		<path class="st0" d="M93.2,48.7c0.5,0,1-0.4,1-1c0-0.5-0.4-1-1-1c-0.5,0-1,0.4-1,1C92.3,48.2,92.7,48.7,93.2,48.7z"/>
		<path class="st0" d="M98.4,48.4c0.4,0,0.7-0.3,0.7-0.7c0-0.4-0.3-0.7-0.7-0.7c-0.4,0-0.7,0.3-0.7,0.7C97.7,48.1,98,48.4,98.4,48.4
			z"/>
		<path class="st0" d="M103.5,48.2c0.3,0,0.5-0.2,0.5-0.5c0-0.3-0.2-0.5-0.5-0.5c-0.3,0-0.5,0.2-0.5,0.5
			C103,48,103.2,48.2,103.5,48.2z"/>
		<path class="st0" d="M108.7,48c0.2,0,0.3-0.1,0.3-0.3c0-0.2-0.1-0.3-0.3-0.3c-0.2,0-0.3,0.1-0.3,0.3C108.4,47.9,108.5,48,108.7,48
			z"/>
		<path class="st0" d="M113.8,47.9c0.1,0,0.2-0.1,0.2-0.2c0-0.1-0.1-0.2-0.2-0.2s-0.2,0.1-0.2,0.2C113.7,47.8,113.7,47.9,113.8,47.9
			z"/>
		<path class="st0" d="M119,47.7C119,47.7,119,47.7,119,47.7C119,47.7,119,47.7,119,47.7C118.9,47.7,118.9,47.7,119,47.7
			C118.9,47.7,118.9,47.7,119,47.7z"/>
		<path class="st0" d="M3.2,52.9C3.2,52.9,3.3,52.9,3.2,52.9C3.3,52.8,3.2,52.8,3.2,52.9C3.2,52.8,3.2,52.8,3.2,52.9
			C3.2,52.9,3.2,52.9,3.2,52.9z"/>
		<path class="st0" d="M8.4,52.9c0.1,0,0.1,0,0.1-0.1c0-0.1,0-0.1-0.1-0.1c-0.1,0-0.1,0-0.1,0.1C8.3,52.9,8.3,52.9,8.4,52.9z"/>
		<path class="st0" d="M13.5,53.1c0.1,0,0.2-0.1,0.2-0.2c0-0.1-0.1-0.2-0.2-0.2c-0.1,0-0.2,0.1-0.2,0.2C13.3,53,13.4,53.1,13.5,53.1
			z"/>
		<path class="st0" d="M18.7,53.3c0.2,0,0.4-0.2,0.4-0.4c0-0.2-0.2-0.4-0.4-0.4c-0.2,0-0.4,0.2-0.4,0.4
			C18.2,53.1,18.4,53.3,18.7,53.3z"/>
		<path class="st0" d="M23.8,53.5c0.4,0,0.7-0.3,0.7-0.7c0-0.4-0.3-0.7-0.7-0.7c-0.4,0-0.7,0.3-0.7,0.7
			C23.1,53.2,23.4,53.5,23.8,53.5z"/>
		<path class="st0" d="M29,53.8c0.5,0,0.9-0.4,0.9-0.9c0-0.5-0.4-0.9-0.9-0.9c-0.5,0-0.9,0.4-0.9,0.9C28,53.4,28.4,53.8,29,53.8z"/>
		<path class="st0" d="M34.1,54.1c0.7,0,1.2-0.5,1.2-1.2c0-0.7-0.5-1.2-1.2-1.2c-0.7,0-1.2,0.5-1.2,1.2
			C32.9,53.5,33.4,54.1,34.1,54.1z"/>
		<path class="st0" d="M39.2,54.4c0.9,0,1.5-0.7,1.5-1.5c0-0.9-0.7-1.5-1.5-1.5c-0.9,0-1.5,0.7-1.5,1.5
			C37.7,53.7,38.4,54.4,39.2,54.4z"/>
		<path class="st0" d="M44.4,54.7c1,0,1.8-0.8,1.8-1.8c0-1-0.8-1.8-1.8-1.8c-1,0-1.8,0.8-1.8,1.8C42.5,53.9,43.4,54.7,44.4,54.7z"/>
		<path class="st0" d="M49.5,55c1.2,0,2.1-1,2.1-2.1c0-1.2-1-2.1-2.1-2.1c-1.2,0-2.1,1-2.1,2.1C47.4,54,48.3,55,49.5,55z"/>
		<path class="st0" d="M54.7,55.2c1.3,0,2.4-1.1,2.4-2.4c0-1.3-1.1-2.4-2.4-2.4c-1.3,0-2.4,1.1-2.4,2.4
			C52.3,54.2,53.4,55.2,54.7,55.2z"/>
		<path class="st0" d="M59.8,55.4c1.4,0,2.6-1.1,2.6-2.6c0-1.4-1.1-2.6-2.6-2.6c-1.4,0-2.6,1.1-2.6,2.6
			C57.3,54.3,58.4,55.4,59.8,55.4z"/>
		<path class="st0" d="M65,55.5c1.5,0,2.6-1.2,2.6-2.6c0-1.4-1.2-2.6-2.6-2.6c-1.4,0-2.6,1.2-2.6,2.6C62.3,54.3,63.5,55.5,65,55.5z"
			/>
		<path class="st0" d="M70.1,55.4c1.4,0,2.6-1.1,2.6-2.6c0-1.4-1.1-2.6-2.6-2.6s-2.6,1.1-2.6,2.6C67.5,54.3,68.7,55.4,70.1,55.4z"/>
		<path class="st0" d="M75.2,55.2c1.3,0,2.4-1.1,2.4-2.4c0-1.3-1.1-2.4-2.4-2.4c-1.3,0-2.4,1.1-2.4,2.4
			C72.9,54.2,73.9,55.2,75.2,55.2z"/>
		<path class="st0" d="M80.4,55c1.2,0,2.1-1,2.1-2.1c0-1.2-1-2.1-2.1-2.1c-1.2,0-2.1,1-2.1,2.1C78.2,54,79.2,55,80.4,55z"/>
		<path class="st0" d="M85.5,54.7c1,0,1.8-0.8,1.8-1.8c0-1-0.8-1.8-1.8-1.8c-1,0-1.8,0.8-1.8,1.8C83.7,53.9,84.5,54.7,85.5,54.7z"/>
		<path class="st0" d="M90.7,54.4c0.9,0,1.5-0.7,1.5-1.5c0-0.9-0.7-1.5-1.5-1.5s-1.5,0.7-1.5,1.5C89.1,53.7,89.8,54.4,90.7,54.4z"/>
		<path class="st0" d="M95.8,54.1c0.7,0,1.2-0.5,1.2-1.2c0-0.7-0.5-1.2-1.2-1.2c-0.7,0-1.2,0.5-1.2,1.2
			C94.6,53.5,95.1,54.1,95.8,54.1z"/>
		<path class="st0" d="M101,53.8c0.5,0,0.9-0.4,0.9-0.9c0-0.5-0.4-0.9-0.9-0.9c-0.5,0-0.9,0.4-0.9,0.9C100,53.4,100.4,53.8,101,53.8
			z"/>
		<path class="st0" d="M106.1,53.5c0.4,0,0.7-0.3,0.7-0.7c0-0.4-0.3-0.7-0.7-0.7c-0.4,0-0.7,0.3-0.7,0.7
			C105.4,53.2,105.7,53.5,106.1,53.5z"/>
		<path class="st0" d="M111.2,53.3c0.2,0,0.4-0.2,0.4-0.4c0-0.2-0.2-0.4-0.4-0.4c-0.2,0-0.4,0.2-0.4,0.4
			C110.8,53.1,111,53.3,111.2,53.3z"/>
		<path class="st0" d="M116.4,53.1c0.1,0,0.2-0.1,0.2-0.2c0-0.1-0.1-0.2-0.2-0.2c-0.1,0-0.2,0.1-0.2,0.2
			C116.1,53,116.2,53.1,116.4,53.1z"/>
		<path class="st0" d="M121.5,52.9c0.1,0,0.1,0,0.1-0.1c0-0.1,0-0.1-0.1-0.1c-0.1,0-0.1,0-0.1,0.1C121.4,52.9,121.5,52.9,121.5,52.9
			z"/>
		<path class="st0" d="M126.7,52.9C126.7,52.9,126.7,52.9,126.7,52.9C126.7,52.8,126.7,52.8,126.7,52.9
			C126.7,52.8,126.7,52.8,126.7,52.9C126.7,52.9,126.7,52.9,126.7,52.9z"/>
		<path class="st0" d="M0.7,58C0.7,58,0.7,58,0.7,58C0.7,58,0.7,57.9,0.7,58C0.6,57.9,0.6,58,0.7,58C0.6,58,0.6,58,0.7,58z"/>
		<path class="st0" d="M5.8,58.1C5.9,58.1,6,58.1,6,58c0-0.1-0.1-0.2-0.2-0.2c-0.1,0-0.2,0.1-0.2,0.2C5.7,58.1,5.7,58.1,5.8,58.1z"
			/>
		<path class="st0" d="M11,58.3c0.2,0,0.3-0.1,0.3-0.3c0-0.2-0.1-0.3-0.3-0.3c-0.2,0-0.3,0.1-0.3,0.3C10.6,58.2,10.8,58.3,11,58.3z"
			/>
		<circle class="st0" cx="16.1" cy="58" r="0.5"/>
		<path class="st0" d="M21.2,58.8c0.4,0,0.8-0.4,0.8-0.8c0-0.4-0.4-0.8-0.8-0.8c-0.4,0-0.8,0.4-0.8,0.8
			C20.4,58.4,20.8,58.8,21.2,58.8z"/>
		<ellipse transform="matrix(0.9871 -0.1602 0.1602 0.9871 -8.9479 4.9744)" class="st0" cx="26.4" cy="58" rx="1.1" ry="1.1"/>
		<path class="st0" d="M31.5,59.4c0.8,0,1.5-0.7,1.5-1.5s-0.7-1.5-1.5-1.5c-0.8,0-1.5,0.7-1.5,1.5S30.7,59.4,31.5,59.4z"/>
		<path class="st0" d="M36.7,59.8c1,0,1.8-0.8,1.8-1.8c0-1-0.8-1.8-1.8-1.8c-1,0-1.8,0.8-1.8,1.8C34.9,59,35.7,59.8,36.7,59.8z"/>
		<circle class="st0" cx="41.8" cy="58" r="2.2"/>
		<path class="st0" d="M47,60.6c1.4,0,2.6-1.2,2.6-2.6c0-1.4-1.2-2.6-2.6-2.6c-1.4,0-2.6,1.2-2.6,2.6C44.4,59.4,45.5,60.6,47,60.6z"
			/>
		<path class="st0" d="M52.1,60.6c1.5,0,2.7-1.2,2.7-2.7c0-1.5-1.2-2.7-2.7-2.7c-1.5,0-2.7,1.2-2.7,2.7
			C49.4,59.5,50.6,60.6,52.1,60.6z"/>
		<path class="st0" d="M57.2,60.6c1.5,0,2.7-1.2,2.7-2.7c0-1.5-1.2-2.7-2.7-2.7c-1.5,0-2.7,1.2-2.7,2.7
			C54.6,59.5,55.8,60.6,57.2,60.6z"/>
		<path class="st0" d="M62.4,60.6c1.5,0,2.7-1.2,2.7-2.7c0-1.5-1.2-2.7-2.7-2.7c-1.5,0-2.7,1.2-2.7,2.7
			C59.7,59.5,60.9,60.6,62.4,60.6z"/>
		<path class="st0" d="M67.5,60.6c1.5,0,2.7-1.2,2.7-2.7c0-1.5-1.2-2.7-2.7-2.7c-1.5,0-2.7,1.2-2.7,2.7
			C64.9,59.5,66.1,60.6,67.5,60.6z"/>
		<path class="st0" d="M72.7,60.6c1.5,0,2.7-1.2,2.7-2.7c0-1.5-1.2-2.7-2.7-2.7c-1.5,0-2.7,1.2-2.7,2.7C70,59.5,71.2,60.6,72.7,60.6
			z"/>
		<path class="st0" d="M77.8,60.6c1.4,0,2.6-1.1,2.6-2.6s-1.1-2.6-2.6-2.6c-1.4,0-2.6,1.1-2.6,2.6S76.4,60.6,77.8,60.6z"/>
		<path class="st0" d="M83,60.2c1.2,0,2.2-1,2.2-2.2c0-1.2-1-2.2-2.2-2.2c-1.2,0-2.2,1-2.2,2.2C80.8,59.2,81.7,60.2,83,60.2z"/>
		<path class="st0" d="M88.1,59.8c1,0,1.8-0.8,1.8-1.8c0-1-0.8-1.8-1.8-1.8c-1,0-1.8,0.8-1.8,1.8C86.3,59,87.1,59.8,88.1,59.8z"/>
		<circle class="st0" cx="93.2" cy="58" r="1.5"/>
		<circle class="st0" cx="98.4" cy="58" r="1.1"/>
		<path class="st0" d="M103.5,58.8c0.4,0,0.8-0.4,0.8-0.8c0-0.4-0.4-0.8-0.8-0.8c-0.4,0-0.8,0.4-0.8,0.8
			C102.7,58.4,103.1,58.8,103.5,58.8z"/>
		<circle class="st0" cx="108.7" cy="58" r="0.5"/>
		<path class="st0" d="M113.8,58.3c0.2,0,0.3-0.1,0.3-0.3c0-0.2-0.1-0.3-0.3-0.3c-0.2,0-0.3,0.1-0.3,0.3
			C113.5,58.2,113.6,58.3,113.8,58.3z"/>
		<path class="st0" d="M119,58.1c0.1,0,0.1-0.1,0.1-0.1c0-0.1-0.1-0.1-0.1-0.1c-0.1,0-0.1,0.1-0.1,0.1
			C118.8,58.1,118.9,58.1,119,58.1z"/>
		<path class="st0" d="M124.1,58C124.1,58,124.1,58,124.1,58C124.1,58,124.1,57.9,124.1,58C124.1,57.9,124.1,58,124.1,58
			C124.1,58,124.1,58,124.1,58z"/>
		<path class="st0" d="M3.2,63.2C3.3,63.2,3.3,63.2,3.2,63.2c0.1-0.1,0-0.1,0-0.1C3.2,63.1,3.2,63.1,3.2,63.2
			C3.2,63.2,3.2,63.2,3.2,63.2z"/>
		<path class="st0" d="M8.4,63.3c0.1,0,0.2-0.1,0.2-0.2c0-0.1-0.1-0.2-0.2-0.2c-0.1,0-0.2,0.1-0.2,0.2C8.2,63.2,8.3,63.3,8.4,63.3z"
			/>
		<path class="st0" d="M13.5,63.5c0.2,0,0.4-0.2,0.4-0.4c0-0.2-0.2-0.4-0.4-0.4c-0.2,0-0.4,0.2-0.4,0.4
			C13.2,63.3,13.3,63.5,13.5,63.5z"/>
		<path class="st0" d="M18.7,63.7c0.3,0,0.6-0.3,0.6-0.6c0-0.3-0.3-0.6-0.6-0.6c-0.3,0-0.6,0.3-0.6,0.6
			C18.1,63.5,18.3,63.7,18.7,63.7z"/>
		<path class="st0" d="M23.8,64c0.5,0,0.9-0.4,0.9-0.9c0-0.5-0.4-0.9-0.9-0.9c-0.5,0-0.9,0.4-0.9,0.9C22.9,63.6,23.3,64,23.8,64z"/>
		<path class="st0" d="M29,64.4c0.7,0,1.2-0.5,1.2-1.2c0-0.7-0.5-1.2-1.2-1.2c-0.7,0-1.2,0.5-1.2,1.2C27.7,63.8,28.3,64.4,29,64.4z"
			/>
		<path class="st0" d="M34.1,64.7c0.9,0,1.6-0.7,1.6-1.6c0-0.9-0.7-1.6-1.6-1.6c-0.9,0-1.6,0.7-1.6,1.6C32.5,64,33.2,64.7,34.1,64.7
			z"/>
		<path class="st0" d="M39.2,65.1c1.1,0,2-0.9,2-2c0-1.1-0.9-2-2-2c-1.1,0-2,0.9-2,2C37.2,64.2,38.1,65.1,39.2,65.1z"/>
		<path class="st0" d="M44.4,65.6c1.4,0,2.5-1.1,2.5-2.5c0-1.4-1.1-2.5-2.5-2.5c-1.4,0-2.5,1.1-2.5,2.5C41.9,64.5,43,65.6,44.4,65.6
			z"/>
		<path class="st0" d="M49.5,65.8c1.5,0,2.7-1.2,2.7-2.7c0-1.5-1.2-2.7-2.7-2.7c-1.5,0-2.7,1.2-2.7,2.7
			C46.9,64.6,48.1,65.8,49.5,65.8z"/>
		<path class="st0" d="M54.7,65.8c1.5,0,2.7-1.2,2.7-2.7c0-1.5-1.2-2.7-2.7-2.7c-1.5,0-2.7,1.2-2.7,2.7C52,64.6,53.2,65.8,54.7,65.8
			z"/>
		<path class="st0" d="M59.8,65.8c1.5,0,2.7-1.2,2.7-2.7c0-1.5-1.2-2.7-2.7-2.7c-1.5,0-2.7,1.2-2.7,2.7
			C57.2,64.6,58.3,65.8,59.8,65.8z"/>
		<path class="st0" d="M65,65.8c1.5,0,2.7-1.2,2.7-2.7c0-1.5-1.2-2.7-2.7-2.7c-1.5,0-2.7,1.2-2.7,2.7C62.3,64.6,63.5,65.8,65,65.8z"
			/>
		<path class="st0" d="M70.1,65.8c1.5,0,2.7-1.2,2.7-2.7c0-1.5-1.2-2.7-2.7-2.7c-1.5,0-2.7,1.2-2.7,2.7
			C67.4,64.6,68.6,65.8,70.1,65.8z"/>
		<path class="st0" d="M75.2,65.8c1.5,0,2.7-1.2,2.7-2.7c0-1.5-1.2-2.7-2.7-2.7c-1.5,0-2.7,1.2-2.7,2.7
			C72.6,64.6,73.8,65.8,75.2,65.8z"/>
		<path class="st0" d="M80.4,65.8c1.5,0,2.7-1.2,2.7-2.7c0-1.5-1.2-2.7-2.7-2.7c-1.5,0-2.7,1.2-2.7,2.7
			C77.7,64.6,78.9,65.8,80.4,65.8z"/>
		<path class="st0" d="M85.5,65.6c1.4,0,2.5-1.1,2.5-2.5c0-1.4-1.1-2.5-2.5-2.5c-1.4,0-2.5,1.1-2.5,2.5
			C83.1,64.5,84.2,65.6,85.5,65.6z"/>
		<path class="st0" d="M90.7,65.1c1.1,0,2-0.9,2-2c0-1.1-0.9-2-2-2c-1.1,0-2,0.9-2,2C88.7,64.2,89.6,65.1,90.7,65.1z"/>
		<path class="st0" d="M95.8,64.7c0.9,0,1.6-0.7,1.6-1.6c0-0.9-0.7-1.6-1.6-1.6c-0.9,0-1.6,0.7-1.6,1.6C94.2,64,94.9,64.7,95.8,64.7
			z"/>
		<path class="st0" d="M101,64.4c0.7,0,1.2-0.5,1.2-1.2c0-0.7-0.5-1.2-1.2-1.2c-0.7,0-1.2,0.5-1.2,1.2
			C99.7,63.8,100.3,64.4,101,64.4z"/>
		<path class="st0" d="M106.1,64c0.5,0,0.9-0.4,0.9-0.9c0-0.5-0.4-0.9-0.9-0.9c-0.5,0-0.9,0.4-0.9,0.9C105.2,63.6,105.6,64,106.1,64
			z"/>
		<path class="st0" d="M111.2,63.7c0.3,0,0.6-0.3,0.6-0.6c0-0.3-0.3-0.6-0.6-0.6c-0.3,0-0.6,0.3-0.6,0.6
			C110.6,63.5,110.9,63.7,111.2,63.7z"/>
		<path class="st0" d="M116.4,63.5c0.2,0,0.4-0.2,0.4-0.4c0-0.2-0.2-0.4-0.4-0.4c-0.2,0-0.4,0.2-0.4,0.4
			C116,63.3,116.2,63.5,116.4,63.5z"/>
		<path class="st0" d="M121.5,63.3c0.1,0,0.2-0.1,0.2-0.2c0-0.1-0.1-0.2-0.2-0.2c-0.1,0-0.2,0.1-0.2,0.2
			C121.3,63.2,121.4,63.3,121.5,63.3z"/>
		<path class="st0" d="M126.7,63.2C126.7,63.2,126.7,63.2,126.7,63.2c0.1-0.1,0-0.1,0-0.1C126.6,63.1,126.6,63.1,126.7,63.2
			C126.6,63.2,126.6,63.2,126.7,63.2z"/>
		<path class="st0" d="M0.7,68.3C0.7,68.3,0.7,68.3,0.7,68.3c0.1-0.1,0-0.1,0-0.1C0.6,68.2,0.6,68.2,0.7,68.3
			C0.6,68.3,0.6,68.3,0.7,68.3z"/>
		<circle class="st0" cx="5.8" cy="68.3" r="0.2"/>
		<path class="st0" d="M11,68.7c0.2,0,0.4-0.2,0.4-0.4c0-0.2-0.2-0.4-0.4-0.4c-0.2,0-0.4,0.2-0.4,0.4C10.6,68.5,10.7,68.7,11,68.7z"
			/>
		<path class="st0" d="M16.1,68.9c0.3,0,0.6-0.3,0.6-0.6c0-0.3-0.3-0.6-0.6-0.6c-0.3,0-0.6,0.3-0.6,0.6
			C15.5,68.6,15.7,68.9,16.1,68.9z"/>
		<path class="st0" d="M21.2,69.2c0.5,0,0.9-0.4,0.9-0.9c0-0.5-0.4-0.9-0.9-0.9c-0.5,0-0.9,0.4-0.9,0.9
			C20.3,68.8,20.7,69.2,21.2,69.2z"/>
		<path class="st0" d="M26.4,69.5c0.7,0,1.3-0.6,1.3-1.3c0-0.7-0.6-1.3-1.3-1.3c-0.7,0-1.3,0.6-1.3,1.3C25.1,69,25.7,69.5,26.4,69.5
			z"/>
		<path class="st0" d="M31.5,69.9c0.9,0,1.6-0.7,1.6-1.6c0-0.9-0.7-1.6-1.6-1.6c-0.9,0-1.6,0.7-1.6,1.6
			C29.9,69.2,30.6,69.9,31.5,69.9z"/>
		<path class="st0" d="M36.7,70.3c1.1,0,2.1-0.9,2.1-2.1c0-1.1-0.9-2.1-2.1-2.1c-1.1,0-2.1,0.9-2.1,2.1
			C34.6,69.4,35.5,70.3,36.7,70.3z"/>
		<path class="st0" d="M41.8,70.8c1.4,0,2.5-1.1,2.5-2.5c0-1.4-1.1-2.5-2.5-2.5c-1.4,0-2.5,1.1-2.5,2.5
			C39.3,69.7,40.4,70.8,41.8,70.8z"/>
		<path class="st0" d="M47,70.9c1.5,0,2.7-1.2,2.7-2.7c0-1.5-1.2-2.7-2.7-2.7c-1.5,0-2.7,1.2-2.7,2.7C44.3,69.7,45.5,70.9,47,70.9z"
			/>
		<path class="st0" d="M52.1,70.9c1.5,0,2.7-1.2,2.7-2.7c0-1.5-1.2-2.7-2.7-2.7c-1.5,0-2.7,1.2-2.7,2.7
			C49.4,69.7,50.6,70.9,52.1,70.9z"/>
		<path class="st0" d="M57.2,70.9c1.5,0,2.7-1.2,2.7-2.7c0-1.5-1.2-2.7-2.7-2.7c-1.5,0-2.7,1.2-2.7,2.7
			C54.6,69.7,55.8,70.9,57.2,70.9z"/>
		<path class="st0" d="M62.4,70.9c1.5,0,2.7-1.2,2.7-2.7c0-1.5-1.2-2.7-2.7-2.7c-1.5,0-2.7,1.2-2.7,2.7
			C59.7,69.7,60.9,70.9,62.4,70.9z"/>
		<path class="st0" d="M67.5,70.9c1.5,0,2.7-1.2,2.7-2.7c0-1.5-1.2-2.7-2.7-2.7c-1.5,0-2.7,1.2-2.7,2.7
			C64.9,69.7,66.1,70.9,67.5,70.9z"/>
		<path class="st0" d="M72.7,70.9c1.5,0,2.7-1.2,2.7-2.7c0-1.5-1.2-2.7-2.7-2.7c-1.5,0-2.7,1.2-2.7,2.7C70,69.7,71.2,70.9,72.7,70.9
			z"/>
		<path class="st0" d="M77.8,70.9c1.5,0,2.7-1.2,2.7-2.7c0-1.5-1.2-2.7-2.7-2.7c-1.5,0-2.7,1.2-2.7,2.7
			C75.2,69.7,76.3,70.9,77.8,70.9z"/>
		<path class="st0" d="M83,70.8c1.4,0,2.5-1.1,2.5-2.5c0-1.4-1.1-2.5-2.5-2.5c-1.4,0-2.5,1.1-2.5,2.5C80.4,69.7,81.6,70.8,83,70.8z"
			/>
		<path class="st0" d="M88.1,70.3c1.1,0,2.1-0.9,2.1-2.1c0-1.1-0.9-2.1-2.1-2.1c-1.1,0-2.1,0.9-2.1,2.1C86,69.4,87,70.3,88.1,70.3z"
			/>
		<path class="st0" d="M93.2,69.9c0.9,0,1.6-0.7,1.6-1.6c0-0.9-0.7-1.6-1.6-1.6c-0.9,0-1.6,0.7-1.6,1.6
			C91.6,69.2,92.3,69.9,93.2,69.9z"/>
		<path class="st0" d="M98.4,69.5c0.7,0,1.3-0.6,1.3-1.3c0-0.7-0.6-1.3-1.3-1.3c-0.7,0-1.3,0.6-1.3,1.3C97.1,69,97.7,69.5,98.4,69.5
			z"/>
		<path class="st0" d="M103.5,69.2c0.5,0,0.9-0.4,0.9-0.9c0-0.5-0.4-0.9-0.9-0.9c-0.5,0-0.9,0.4-0.9,0.9
			C102.6,68.8,103,69.2,103.5,69.2z"/>
		<path class="st0" d="M108.7,68.9c0.3,0,0.6-0.3,0.6-0.6c0-0.3-0.3-0.6-0.6-0.6c-0.3,0-0.6,0.3-0.6,0.6
			C108,68.6,108.3,68.9,108.7,68.9z"/>
		<path class="st0" d="M113.8,68.7c0.2,0,0.4-0.2,0.4-0.4c0-0.2-0.2-0.4-0.4-0.4s-0.4,0.2-0.4,0.4C113.4,68.5,113.6,68.7,113.8,68.7
			z"/>
		<path class="st0" d="M119,68.5c0.1,0,0.2-0.1,0.2-0.2c0-0.1-0.1-0.2-0.2-0.2c-0.1,0-0.2,0.1-0.2,0.2
			C118.8,68.4,118.8,68.5,119,68.5z"/>
		<path class="st0" d="M124.1,68.3C124.1,68.3,124.2,68.3,124.1,68.3c0.1-0.1,0-0.1,0-0.1C124.1,68.2,124,68.2,124.1,68.3
			C124,68.3,124.1,68.3,124.1,68.3z"/>
		<path class="st0" d="M3.2,73.5C3.3,73.5,3.3,73.4,3.2,73.5c0.1-0.1,0-0.1,0-0.1C3.2,73.4,3.2,73.4,3.2,73.5
			C3.2,73.4,3.2,73.5,3.2,73.5z"/>
		<path class="st0" d="M8.4,73.6c0.1,0,0.2-0.1,0.2-0.2c0-0.1-0.1-0.2-0.2-0.2c-0.1,0-0.2,0.1-0.2,0.2C8.2,73.5,8.3,73.6,8.4,73.6z"
			/>
		<path class="st0" d="M13.5,73.8c0.2,0,0.4-0.2,0.4-0.4c0-0.2-0.2-0.4-0.4-0.4c-0.2,0-0.4,0.2-0.4,0.4
			C13.2,73.6,13.3,73.8,13.5,73.8z"/>
		<path class="st0" d="M18.7,74c0.3,0,0.6-0.3,0.6-0.6c0-0.3-0.3-0.6-0.6-0.6c-0.3,0-0.6,0.3-0.6,0.6C18.1,73.7,18.3,74,18.7,74z"/>
		<path class="st0" d="M23.8,74.3c0.5,0,0.9-0.4,0.9-0.9c0-0.5-0.4-0.9-0.9-0.9c-0.5,0-0.9,0.4-0.9,0.9
			C22.9,73.9,23.3,74.3,23.8,74.3z"/>
		<path class="st0" d="M29,74.6c0.7,0,1.2-0.5,1.2-1.2c0-0.7-0.5-1.2-1.2-1.2c-0.7,0-1.2,0.5-1.2,1.2C27.7,74.1,28.3,74.6,29,74.6z"
			/>
		<path class="st0" d="M34.1,75c0.9,0,1.6-0.7,1.6-1.6c0-0.9-0.7-1.6-1.6-1.6c-0.9,0-1.6,0.7-1.6,1.6C32.5,74.3,33.2,75,34.1,75z"/>
		<path class="st0" d="M39.2,75.4c1.1,0,2-0.9,2-2c0-1.1-0.9-2-2-2c-1.1,0-2,0.9-2,2C37.3,74.5,38.1,75.4,39.2,75.4z"/>
		<path class="st0" d="M44.4,75.8c1.3,0,2.4-1.1,2.4-2.4c0-1.3-1.1-2.4-2.4-2.4C43,71,42,72.1,42,73.4C42,74.7,43,75.8,44.4,75.8z"
			/>
		<path class="st0" d="M49.5,76.1c1.5,0,2.7-1.2,2.7-2.7c0-1.5-1.2-2.7-2.7-2.7c-1.5,0-2.7,1.2-2.7,2.7
			C46.9,74.9,48.1,76.1,49.5,76.1z"/>
		<path class="st0" d="M54.7,76.1c1.5,0,2.7-1.2,2.7-2.7c0-1.5-1.2-2.7-2.7-2.7c-1.5,0-2.7,1.2-2.7,2.7C52,74.9,53.2,76.1,54.7,76.1
			z"/>
		<path class="st0" d="M59.8,76.1c1.5,0,2.7-1.2,2.7-2.7c0-1.5-1.2-2.7-2.7-2.7c-1.5,0-2.7,1.2-2.7,2.7
			C57.2,74.9,58.3,76.1,59.8,76.1z"/>
		<path class="st0" d="M65,76.1c1.5,0,2.7-1.2,2.7-2.7c0-1.5-1.2-2.7-2.7-2.7c-1.5,0-2.7,1.2-2.7,2.7C62.3,74.9,63.5,76.1,65,76.1z"
			/>
		<path class="st0" d="M70.1,76.1c1.5,0,2.7-1.2,2.7-2.7c0-1.5-1.2-2.7-2.7-2.7c-1.5,0-2.7,1.2-2.7,2.7
			C67.4,74.9,68.6,76.1,70.1,76.1z"/>
		<path class="st0" d="M75.2,76.1c1.5,0,2.7-1.2,2.7-2.7c0-1.5-1.2-2.7-2.7-2.7c-1.5,0-2.7,1.2-2.7,2.7
			C72.6,74.9,73.8,76.1,75.2,76.1z"/>
		<path class="st0" d="M80.4,76.1c1.5,0,2.7-1.2,2.7-2.7c0-1.5-1.2-2.7-2.7-2.7c-1.5,0-2.7,1.2-2.7,2.7
			C77.7,74.9,78.9,76.1,80.4,76.1z"/>
		<path class="st0" d="M85.5,75.8c1.3,0,2.4-1.1,2.4-2.4c0-1.3-1.1-2.4-2.4-2.4c-1.3,0-2.4,1.1-2.4,2.4
			C83.1,74.7,84.2,75.8,85.5,75.8z"/>
		<path class="st0" d="M90.7,75.4c1.1,0,2-0.9,2-2s-0.9-2-2-2s-2,0.9-2,2S89.6,75.4,90.7,75.4z"/>
		<path class="st0" d="M95.8,75c0.9,0,1.6-0.7,1.6-1.6c0-0.9-0.7-1.6-1.6-1.6c-0.9,0-1.6,0.7-1.6,1.6C94.2,74.3,94.9,75,95.8,75z"/>
		<path class="st0" d="M101,74.6c0.7,0,1.2-0.5,1.2-1.2c0-0.7-0.5-1.2-1.2-1.2c-0.7,0-1.2,0.5-1.2,1.2
			C99.7,74.1,100.3,74.6,101,74.6z"/>
		<path class="st0" d="M106.1,74.3c0.5,0,0.9-0.4,0.9-0.9c0-0.5-0.4-0.9-0.9-0.9c-0.5,0-0.9,0.4-0.9,0.9
			C105.2,73.9,105.6,74.3,106.1,74.3z"/>
		<path class="st0" d="M111.2,74c0.3,0,0.6-0.3,0.6-0.6c0-0.3-0.3-0.6-0.6-0.6c-0.3,0-0.6,0.3-0.6,0.6C110.6,73.7,110.9,74,111.2,74
			z"/>
		<path class="st0" d="M116.4,73.8c0.2,0,0.4-0.2,0.4-0.4c0-0.2-0.2-0.4-0.4-0.4c-0.2,0-0.4,0.2-0.4,0.4
			C116,73.6,116.2,73.8,116.4,73.8z"/>
		<path class="st0" d="M121.5,73.6c0.1,0,0.2-0.1,0.2-0.2c0-0.1-0.1-0.2-0.2-0.2c-0.1,0-0.2,0.1-0.2,0.2
			C121.4,73.5,121.4,73.6,121.5,73.6z"/>
		<path class="st0" d="M126.7,73.5C126.7,73.5,126.7,73.4,126.7,73.5c0.1-0.1,0-0.1,0-0.1C126.6,73.4,126.6,73.4,126.7,73.5
			C126.6,73.4,126.6,73.5,126.7,73.5z"/>
		<path class="st0" d="M0.7,78.6C0.7,78.6,0.7,78.6,0.7,78.6C0.7,78.5,0.7,78.5,0.7,78.6C0.7,78.5,0.6,78.5,0.7,78.6
			C0.6,78.6,0.7,78.6,0.7,78.6z"/>
		<path class="st0" d="M5.8,78.7c0.1,0,0.1-0.1,0.1-0.1c0-0.1-0.1-0.1-0.1-0.1s-0.1,0.1-0.1,0.1C5.7,78.6,5.7,78.7,5.8,78.7z"/>
		<path class="st0" d="M11,78.9c0.2,0,0.3-0.1,0.3-0.3c0-0.2-0.1-0.3-0.3-0.3c-0.2,0-0.3,0.1-0.3,0.3C10.6,78.7,10.8,78.9,11,78.9z"
			/>
		<path class="st0" d="M16.1,79.1c0.3,0,0.5-0.2,0.5-0.5c0-0.3-0.2-0.5-0.5-0.5c-0.3,0-0.5,0.2-0.5,0.5
			C15.6,78.8,15.8,79.1,16.1,79.1z"/>
		<path class="st0" d="M21.2,79.3c0.4,0,0.8-0.4,0.8-0.8s-0.4-0.8-0.8-0.8c-0.4,0-0.8,0.4-0.8,0.8S20.8,79.3,21.2,79.3z"/>
		
			<ellipse transform="matrix(9.853812e-02 -0.9951 0.9951 9.853812e-02 -54.3951 97.0696)" class="st0" cx="26.4" cy="78.6" rx="1.1" ry="1.1"/>
		<path class="st0" d="M31.5,80c0.8,0,1.4-0.6,1.4-1.4s-0.6-1.4-1.4-1.4c-0.8,0-1.4,0.6-1.4,1.4S30.7,80,31.5,80z"/>
		<path class="st0" d="M36.7,80.3c1,0,1.8-0.8,1.8-1.8c0-1-0.8-1.8-1.8-1.8c-1,0-1.8,0.8-1.8,1.8C34.9,79.5,35.7,80.3,36.7,80.3z"/>
		<path class="st0" d="M41.8,80.7c1.2,0,2.1-1,2.1-2.1c0-1.2-1-2.1-2.1-2.1c-1.2,0-2.1,1-2.1,2.1C39.7,79.7,40.6,80.7,41.8,80.7z"/>
		<path class="st0" d="M47,81.1c1.4,0,2.5-1.1,2.5-2.5c0-1.4-1.1-2.5-2.5-2.5c-1.4,0-2.5,1.1-2.5,2.5C44.5,79.9,45.6,81.1,47,81.1z"
			/>
		<path class="st0" d="M52.1,81.2c1.5,0,2.7-1.2,2.7-2.7c0-1.5-1.2-2.7-2.7-2.7c-1.5,0-2.7,1.2-2.7,2.7C49.4,80,50.6,81.2,52.1,81.2
			z"/>
		<path class="st0" d="M57.2,81.2c1.5,0,2.7-1.2,2.7-2.7c0-1.5-1.2-2.7-2.7-2.7c-1.5,0-2.7,1.2-2.7,2.7C54.6,80,55.8,81.2,57.2,81.2
			z"/>
		<path class="st0" d="M62.4,81.2c1.5,0,2.7-1.2,2.7-2.7c0-1.5-1.2-2.7-2.7-2.7c-1.5,0-2.7,1.2-2.7,2.7C59.7,80,60.9,81.2,62.4,81.2
			z"/>
		<path class="st0" d="M67.5,81.2c1.5,0,2.7-1.2,2.7-2.7c0-1.5-1.2-2.7-2.7-2.7c-1.5,0-2.7,1.2-2.7,2.7C64.9,80,66.1,81.2,67.5,81.2
			z"/>
		<path class="st0" d="M72.7,81.2c1.5,0,2.7-1.2,2.7-2.7c0-1.5-1.2-2.7-2.7-2.7c-1.5,0-2.7,1.2-2.7,2.7C70,80,71.2,81.2,72.7,81.2z"
			/>
		<path class="st0" d="M77.8,81.1c1.4,0,2.5-1.1,2.5-2.5c0-1.4-1.1-2.5-2.5-2.5s-2.5,1.1-2.5,2.5C75.3,79.9,76.4,81.1,77.8,81.1z"/>
		<circle class="st0" cx="83" cy="78.6" r="2.1"/>
		<path class="st0" d="M88.1,80.3c1,0,1.8-0.8,1.8-1.8c0-1-0.8-1.8-1.8-1.8c-1,0-1.8,0.8-1.8,1.8C86.3,79.5,87.1,80.3,88.1,80.3z"/>
		<path class="st0" d="M93.2,80c0.8,0,1.4-0.6,1.4-1.4s-0.6-1.4-1.4-1.4c-0.8,0-1.4,0.6-1.4,1.4S92.5,80,93.2,80z"/>
		<path class="st0" d="M98.4,79.6c0.6,0,1.1-0.5,1.1-1.1s-0.5-1.1-1.1-1.1c-0.6,0-1.1,0.5-1.1,1.1S97.8,79.6,98.4,79.6z"/>
		<path class="st0" d="M103.5,79.3c0.4,0,0.8-0.4,0.8-0.8s-0.4-0.8-0.8-0.8c-0.4,0-0.8,0.4-0.8,0.8S103.1,79.3,103.5,79.3z"/>
		<path class="st0" d="M108.7,79.1c0.3,0,0.5-0.2,0.5-0.5c0-0.3-0.2-0.5-0.5-0.5c-0.3,0-0.5,0.2-0.5,0.5
			C108.1,78.8,108.4,79.1,108.7,79.1z"/>
		<path class="st0" d="M113.8,78.9c0.2,0,0.3-0.1,0.3-0.3c0-0.2-0.1-0.3-0.3-0.3c-0.2,0-0.3,0.1-0.3,0.3
			C113.5,78.7,113.6,78.9,113.8,78.9z"/>
		<path class="st0" d="M119,78.7c0.1,0,0.1-0.1,0.1-0.1c0-0.1-0.1-0.1-0.1-0.1c-0.1,0-0.1,0.1-0.1,0.1
			C118.8,78.6,118.9,78.7,119,78.7z"/>
		<path class="st0" d="M124.1,78.6C124.1,78.6,124.1,78.6,124.1,78.6C124.1,78.5,124.1,78.5,124.1,78.6
			C124.1,78.5,124.1,78.5,124.1,78.6C124.1,78.6,124.1,78.6,124.1,78.6z"/>
		<path class="st0" d="M3.2,83.7C3.2,83.7,3.3,83.7,3.2,83.7C3.3,83.7,3.2,83.7,3.2,83.7C3.2,83.7,3.2,83.7,3.2,83.7
			C3.2,83.7,3.2,83.7,3.2,83.7z"/>
		<path class="st0" d="M8.4,83.8C8.4,83.8,8.5,83.7,8.4,83.8c0.1-0.1,0-0.2,0-0.2C8.3,83.6,8.3,83.7,8.4,83.8
			C8.3,83.7,8.3,83.8,8.4,83.8z"/>
		<path class="st0" d="M13.5,83.9c0.1,0,0.2-0.1,0.2-0.2s-0.1-0.2-0.2-0.2c-0.1,0-0.2,0.1-0.2,0.2S13.4,83.9,13.5,83.9z"/>
		<path class="st0" d="M18.7,84.1c0.2,0,0.4-0.2,0.4-0.4s-0.2-0.4-0.4-0.4c-0.2,0-0.4,0.2-0.4,0.4S18.4,84.1,18.7,84.1z"/>
		<path class="st0" d="M23.8,84.3c0.4,0,0.6-0.3,0.6-0.6s-0.3-0.6-0.6-0.6c-0.4,0-0.6,0.3-0.6,0.6S23.5,84.3,23.8,84.3z"/>
		<path class="st0" d="M29,84.6c0.5,0,0.9-0.4,0.9-0.9c0-0.5-0.4-0.9-0.9-0.9c-0.5,0-0.9,0.4-0.9,0.9C28.1,84.2,28.5,84.6,29,84.6z"
			/>
		<path class="st0" d="M34.1,84.9c0.6,0,1.2-0.5,1.2-1.2c0-0.6-0.5-1.2-1.2-1.2c-0.6,0-1.2,0.5-1.2,1.2
			C32.9,84.3,33.4,84.9,34.1,84.9z"/>
		<path class="st0" d="M39.2,85.2c0.8,0,1.5-0.7,1.5-1.5c0-0.8-0.7-1.5-1.5-1.5c-0.8,0-1.5,0.7-1.5,1.5
			C37.8,84.5,38.4,85.2,39.2,85.2z"/>
		<path class="st0" d="M44.4,85.5c1,0,1.8-0.8,1.8-1.8c0-1-0.8-1.8-1.8-1.8c-1,0-1.8,0.8-1.8,1.8C42.6,84.7,43.4,85.5,44.4,85.5z"/>
		<path class="st0" d="M49.5,85.7c1.1,0,2-0.9,2-2c0-1.1-0.9-2-2-2c-1.1,0-2,0.9-2,2C47.5,84.8,48.4,85.7,49.5,85.7z"/>
		<path class="st0" d="M54.7,86c1.3,0,2.3-1,2.3-2.3c0-1.3-1-2.3-2.3-2.3c-1.3,0-2.3,1-2.3,2.3C52.4,85,53.4,86,54.7,86z"/>
		<path class="st0" d="M59.8,86.1c1.3,0,2.4-1.1,2.4-2.4c0-1.3-1.1-2.4-2.4-2.4c-1.3,0-2.4,1.1-2.4,2.4C57.4,85,58.5,86.1,59.8,86.1
			z"/>
		<path class="st0" d="M65,86.2c1.4,0,2.5-1.1,2.5-2.5c0-1.4-1.1-2.5-2.5-2.5c-1.4,0-2.5,1.1-2.5,2.5C62.5,85.1,63.6,86.2,65,86.2z"
			/>
		<path class="st0" d="M70.1,86.1c1.3,0,2.4-1.1,2.4-2.4c0-1.3-1.1-2.4-2.4-2.4c-1.3,0-2.4,1.1-2.4,2.4C67.7,85,68.7,86.1,70.1,86.1
			z"/>
		<path class="st0" d="M75.2,86c1.3,0,2.3-1,2.3-2.3c0-1.3-1-2.3-2.3-2.3c-1.3,0-2.3,1-2.3,2.3C73,85,74,86,75.2,86z"/>
		<path class="st0" d="M80.4,85.7c1.1,0,2-0.9,2-2c0-1.1-0.9-2-2-2c-1.1,0-2,0.9-2,2C78.3,84.8,79.3,85.7,80.4,85.7z"/>
		<path class="st0" d="M85.5,85.5c1,0,1.8-0.8,1.8-1.8c0-1-0.8-1.8-1.8-1.8c-1,0-1.8,0.8-1.8,1.8C83.8,84.7,84.5,85.5,85.5,85.5z"/>
		<path class="st0" d="M90.7,85.2c0.8,0,1.5-0.7,1.5-1.5c0-0.8-0.7-1.5-1.5-1.5s-1.5,0.7-1.5,1.5C89.2,84.5,89.9,85.2,90.7,85.2z"/>
		<path class="st0" d="M95.8,84.9c0.6,0,1.2-0.5,1.2-1.2c0-0.6-0.5-1.2-1.2-1.2s-1.2,0.5-1.2,1.2C94.6,84.3,95.2,84.9,95.8,84.9z"/>
		<path class="st0" d="M101,84.6c0.5,0,0.9-0.4,0.9-0.9c0-0.5-0.4-0.9-0.9-0.9c-0.5,0-0.9,0.4-0.9,0.9
			C100.1,84.2,100.5,84.6,101,84.6z"/>
		<path class="st0" d="M106.1,84.3c0.4,0,0.6-0.3,0.6-0.6s-0.3-0.6-0.6-0.6s-0.6,0.3-0.6,0.6S105.7,84.3,106.1,84.3z"/>
		<path class="st0" d="M111.2,84.1c0.2,0,0.4-0.2,0.4-0.4s-0.2-0.4-0.4-0.4s-0.4,0.2-0.4,0.4S111,84.1,111.2,84.1z"/>
		<path class="st0" d="M116.4,83.9c0.1,0,0.2-0.1,0.2-0.2s-0.1-0.2-0.2-0.2c-0.1,0-0.2,0.1-0.2,0.2S116.3,83.9,116.4,83.9z"/>
		<path class="st0" d="M121.5,83.8C121.6,83.8,121.6,83.7,121.5,83.8c0.1-0.1,0-0.2,0-0.2C121.5,83.6,121.4,83.7,121.5,83.8
			C121.4,83.7,121.5,83.8,121.5,83.8z"/>
		<path class="st0" d="M126.7,83.7C126.7,83.7,126.7,83.7,126.7,83.7C126.7,83.7,126.7,83.7,126.7,83.7
			C126.7,83.7,126.7,83.7,126.7,83.7C126.7,83.7,126.7,83.7,126.7,83.7z"/>
		<path class="st0" d="M5.8,88.9C5.8,88.9,5.9,88.9,5.8,88.9C5.9,88.8,5.8,88.8,5.8,88.9C5.8,88.8,5.8,88.8,5.8,88.9
			C5.8,88.9,5.8,88.9,5.8,88.9z"/>
		<path class="st0" d="M11,89c0.1,0,0.1-0.1,0.1-0.1c0-0.1-0.1-0.1-0.1-0.1c-0.1,0-0.1,0.1-0.1,0.1C10.8,88.9,10.9,89,11,89z"/>
		<path class="st0" d="M16.1,89.1c0.2,0,0.3-0.1,0.3-0.3c0-0.2-0.1-0.3-0.3-0.3c-0.2,0-0.3,0.1-0.3,0.3C15.8,89,15.9,89.1,16.1,89.1
			z"/>
		<path class="st0" d="M21.2,89.3c0.3,0,0.5-0.2,0.5-0.5c0-0.3-0.2-0.5-0.5-0.5c-0.3,0-0.5,0.2-0.5,0.5C20.8,89.1,21,89.3,21.2,89.3
			z"/>
		<path class="st0" d="M26.4,89.5c0.4,0,0.7-0.3,0.7-0.7c0-0.4-0.3-0.7-0.7-0.7s-0.7,0.3-0.7,0.7C25.7,89.2,26,89.5,26.4,89.5z"/>
		<path class="st0" d="M31.5,89.7c0.5,0,0.9-0.4,0.9-0.9c0-0.5-0.4-0.9-0.9-0.9c-0.5,0-0.9,0.4-0.9,0.9C30.6,89.3,31,89.7,31.5,89.7
			z"/>
		<path class="st0" d="M36.7,90c0.6,0,1.1-0.5,1.1-1.1c0-0.6-0.5-1.1-1.1-1.1c-0.6,0-1.1,0.5-1.1,1.1C35.5,89.5,36,90,36.7,90z"/>
		<path class="st0" d="M41.8,90.2c0.8,0,1.4-0.6,1.4-1.4c0-0.8-0.6-1.4-1.4-1.4c-0.8,0-1.4,0.6-1.4,1.4
			C40.4,89.6,41.1,90.2,41.8,90.2z"/>
		<path class="st0" d="M47,90.4c0.9,0,1.6-0.7,1.6-1.6c0-0.9-0.7-1.6-1.6-1.6c-0.9,0-1.6,0.7-1.6,1.6C45.4,89.7,46.1,90.4,47,90.4z"
			/>
		<path class="st0" d="M52.1,90.6c1,0,1.8-0.8,1.8-1.8c0-1-0.8-1.8-1.8-1.8c-1,0-1.8,0.8-1.8,1.8C50.3,89.8,51.1,90.6,52.1,90.6z"/>
		<path class="st0" d="M57.2,90.7c1,0,1.9-0.8,1.9-1.9c0-1-0.8-1.9-1.9-1.9c-1,0-1.9,0.8-1.9,1.9C55.4,89.9,56.2,90.7,57.2,90.7z"/>
		<path class="st0" d="M62.4,90.7c1,0,1.9-0.8,1.9-1.9c0-1-0.8-1.9-1.9-1.9c-1,0-1.9,0.8-1.9,1.9C60.5,89.9,61.3,90.7,62.4,90.7z"/>
		<path class="st0" d="M67.5,90.7c1,0,1.9-0.8,1.9-1.9c0-1-0.8-1.9-1.9-1.9c-1,0-1.9,0.8-1.9,1.9C65.7,89.9,66.5,90.7,67.5,90.7z"/>
		<path class="st0" d="M72.7,90.6c1,0,1.8-0.8,1.8-1.8c0-1-0.8-1.8-1.8-1.8c-1,0-1.8,0.8-1.8,1.8C70.9,89.8,71.7,90.6,72.7,90.6z"/>
		<circle class="st0" cx="77.8" cy="88.8" r="1.6"/>
		<path class="st0" d="M83,90.2c0.8,0,1.4-0.6,1.4-1.4c0-0.8-0.6-1.4-1.4-1.4c-0.8,0-1.4,0.6-1.4,1.4C81.6,89.6,82.2,90.2,83,90.2z"
			/>
		<path class="st0" d="M88.1,90c0.6,0,1.1-0.5,1.1-1.1c0-0.6-0.5-1.1-1.1-1.1c-0.6,0-1.1,0.5-1.1,1.1C87,89.5,87.5,90,88.1,90z"/>
		<path class="st0" d="M93.2,89.7c0.5,0,0.9-0.4,0.9-0.9c0-0.5-0.4-0.9-0.9-0.9s-0.9,0.4-0.9,0.9C92.3,89.3,92.7,89.7,93.2,89.7z"/>
		<path class="st0" d="M98.4,89.5c0.4,0,0.7-0.3,0.7-0.7c0-0.4-0.3-0.7-0.7-0.7c-0.4,0-0.7,0.3-0.7,0.7C97.7,89.2,98,89.5,98.4,89.5
			z"/>
		<path class="st0" d="M103.5,89.3c0.3,0,0.5-0.2,0.5-0.5c0-0.3-0.2-0.5-0.5-0.5c-0.3,0-0.5,0.2-0.5,0.5
			C103.1,89.1,103.3,89.3,103.5,89.3z"/>
		<path class="st0" d="M108.7,89.1c0.2,0,0.3-0.1,0.3-0.3c0-0.2-0.1-0.3-0.3-0.3c-0.2,0-0.3,0.1-0.3,0.3
			C108.4,89,108.5,89.1,108.7,89.1z"/>
		<path class="st0" d="M113.8,89c0.1,0,0.1-0.1,0.1-0.1c0-0.1-0.1-0.1-0.1-0.1s-0.1,0.1-0.1,0.1C113.7,88.9,113.7,89,113.8,89z"/>
		<path class="st0" d="M119,88.9C119,88.9,119,88.9,119,88.9C119,88.8,119,88.8,119,88.9C118.9,88.8,118.9,88.8,119,88.9
			C118.9,88.9,118.9,88.9,119,88.9z"/>
		<path class="st0" d="M13.5,94C13.6,94,13.6,94,13.5,94c0.1-0.1,0-0.1,0-0.1C13.5,93.9,13.5,94,13.5,94C13.5,94,13.5,94,13.5,94z"
			/>
		<path class="st0" d="M18.7,94.1c0.1,0,0.2-0.1,0.2-0.2c0-0.1-0.1-0.2-0.2-0.2c-0.1,0-0.2,0.1-0.2,0.2
			C18.5,94.1,18.6,94.1,18.7,94.1z"/>
		<path class="st0" d="M23.8,94.3c0.2,0,0.3-0.1,0.3-0.3c0-0.2-0.1-0.3-0.3-0.3c-0.2,0-0.3,0.1-0.3,0.3
			C23.5,94.2,23.6,94.3,23.8,94.3z"/>
		<path class="st0" d="M29,94.4c0.3,0,0.5-0.2,0.5-0.5c0-0.3-0.2-0.5-0.5-0.5c-0.3,0-0.5,0.2-0.5,0.5C28.5,94.2,28.7,94.4,29,94.4z"
			/>
		<path class="st0" d="M34.1,94.6c0.4,0,0.6-0.3,0.6-0.6s-0.3-0.6-0.6-0.6c-0.4,0-0.6,0.3-0.6,0.6S33.7,94.6,34.1,94.6z"/>
		<circle class="st0" cx="39.2" cy="94" r="0.8"/>
		<path class="st0" d="M44.4,95c0.5,0,1-0.4,1-1c0-0.5-0.4-1-1-1c-0.5,0-1,0.4-1,1C43.4,94.5,43.8,95,44.4,95z"/>
		<path class="st0" d="M49.5,95.1c0.6,0,1.1-0.5,1.1-1.1c0-0.6-0.5-1.1-1.1-1.1c-0.6,0-1.1,0.5-1.1,1.1
			C48.4,94.6,48.9,95.1,49.5,95.1z"/>
		<path class="st0" d="M54.7,95.3c0.7,0,1.3-0.6,1.3-1.3c0-0.7-0.6-1.3-1.3-1.3c-0.7,0-1.3,0.6-1.3,1.3C53.4,94.7,54,95.3,54.7,95.3
			z"/>
		<path class="st0" d="M59.8,95.3c0.7,0,1.3-0.6,1.3-1.3c0-0.7-0.6-1.3-1.3-1.3c-0.7,0-1.3,0.6-1.3,1.3
			C58.5,94.7,59.1,95.3,59.8,95.3z"/>
		<path class="st0" d="M65,95.4c0.8,0,1.4-0.6,1.4-1.4c0-0.8-0.6-1.4-1.4-1.4c-0.8,0-1.4,0.6-1.4,1.4C63.6,94.7,64.2,95.4,65,95.4z"
			/>
		<path class="st0" d="M70.1,95.3c0.7,0,1.3-0.6,1.3-1.3c0-0.7-0.6-1.3-1.3-1.3c-0.7,0-1.3,0.6-1.3,1.3
			C68.8,94.7,69.4,95.3,70.1,95.3z"/>
		<path class="st0" d="M75.2,95.3c0.7,0,1.3-0.6,1.3-1.3c0-0.7-0.6-1.3-1.3-1.3c-0.7,0-1.3,0.6-1.3,1.3C74,94.7,74.5,95.3,75.2,95.3
			z"/>
		<path class="st0" d="M80.4,95.1c0.6,0,1.1-0.5,1.1-1.1c0-0.6-0.5-1.1-1.1-1.1c-0.6,0-1.1,0.5-1.1,1.1
			C79.2,94.6,79.8,95.1,80.4,95.1z"/>
		<path class="st0" d="M85.5,95c0.5,0,1-0.4,1-1c0-0.5-0.4-1-1-1c-0.5,0-1,0.4-1,1C84.5,94.5,85,95,85.5,95z"/>
		<path class="st0" d="M90.7,94.8c0.4,0,0.8-0.4,0.8-0.8c0-0.4-0.4-0.8-0.8-0.8c-0.4,0-0.8,0.4-0.8,0.8
			C89.9,94.4,90.2,94.8,90.7,94.8z"/>
		<circle class="st0" cx="95.8" cy="94" r="0.6"/>
		<path class="st0" d="M101,94.4c0.3,0,0.5-0.2,0.5-0.5c0-0.3-0.2-0.5-0.5-0.5c-0.3,0-0.5,0.2-0.5,0.5
			C100.5,94.2,100.7,94.4,101,94.4z"/>
		<path class="st0" d="M106.1,94.3c0.2,0,0.3-0.1,0.3-0.3c0-0.2-0.1-0.3-0.3-0.3c-0.2,0-0.3,0.1-0.3,0.3
			C105.8,94.2,105.9,94.3,106.1,94.3z"/>
		<path class="st0" d="M111.2,94.1c0.1,0,0.2-0.1,0.2-0.2c0-0.1-0.1-0.2-0.2-0.2s-0.2,0.1-0.2,0.2C111.1,94.1,111.2,94.1,111.2,94.1
			z"/>
		<path class="st0" d="M116.4,94C116.4,94,116.4,94,116.4,94c0.1-0.1,0-0.1,0-0.1C116.3,93.9,116.3,94,116.4,94
			C116.3,94,116.3,94,116.4,94z"/>
		<path class="st0" d="M16.1,99.2C16.1,99.2,16.2,99.2,16.1,99.2c0.1-0.1,0-0.1,0-0.1C16.1,99.1,16,99.1,16.1,99.2
			C16,99.2,16.1,99.2,16.1,99.2z"/>
		<path class="st0" d="M21.2,99.3c0.1,0,0.1-0.1,0.1-0.1c0-0.1-0.1-0.1-0.1-0.1c-0.1,0-0.1,0.1-0.1,0.1
			C21.1,99.2,21.2,99.3,21.2,99.3z"/>
		<path class="st0" d="M26.4,99.4c0.1,0,0.3-0.1,0.3-0.3c0-0.1-0.1-0.3-0.3-0.3c-0.1,0-0.3,0.1-0.3,0.3
			C26.1,99.3,26.2,99.4,26.4,99.4z"/>
		<path class="st0" d="M31.5,99.5c0.2,0,0.4-0.2,0.4-0.4c0-0.2-0.2-0.4-0.4-0.4c-0.2,0-0.4,0.2-0.4,0.4
			C31.1,99.3,31.3,99.5,31.5,99.5z"/>
		<path class="st0" d="M36.7,99.6c0.3,0,0.5-0.2,0.5-0.5c0-0.3-0.2-0.5-0.5-0.5c-0.3,0-0.5,0.2-0.5,0.5
			C36.2,99.4,36.4,99.6,36.7,99.6z"/>
		<path class="st0" d="M41.8,99.8c0.4,0,0.6-0.3,0.6-0.6c0-0.4-0.3-0.6-0.6-0.6s-0.6,0.3-0.6,0.6C41.2,99.5,41.5,99.8,41.8,99.8z"/>
		<path class="st0" d="M47,99.9c0.4,0,0.8-0.3,0.8-0.8c0-0.4-0.3-0.8-0.8-0.8c-0.4,0-0.8,0.3-0.8,0.8C46.2,99.5,46.5,99.9,47,99.9z"
			/>
		<path class="st0" d="M52.1,100c0.5,0,0.8-0.4,0.8-0.8c0-0.5-0.4-0.8-0.8-0.8c-0.5,0-0.8,0.4-0.8,0.8C51.3,99.6,51.6,100,52.1,100z
			"/>
		<path class="st0" d="M57.2,100c0.5,0,0.9-0.4,0.9-0.9c0-0.5-0.4-0.9-0.9-0.9c-0.5,0-0.9,0.4-0.9,0.9C56.3,99.6,56.7,100,57.2,100z
			"/>
		<path class="st0" d="M62.4,100.1c0.5,0,0.9-0.4,0.9-0.9c0-0.5-0.4-0.9-0.9-0.9c-0.5,0-0.9,0.4-0.9,0.9
			C61.5,99.6,61.9,100.1,62.4,100.1z"/>
		<path class="st0" d="M67.5,100c0.5,0,0.9-0.4,0.9-0.9c0-0.5-0.4-0.9-0.9-0.9c-0.5,0-0.9,0.4-0.9,0.9C66.6,99.6,67,100,67.5,100z"
			/>
		<path class="st0" d="M72.7,100c0.5,0,0.8-0.4,0.8-0.8c0-0.5-0.4-0.8-0.8-0.8c-0.5,0-0.8,0.4-0.8,0.8C71.8,99.6,72.2,100,72.7,100z
			"/>
		<path class="st0" d="M77.8,99.9c0.4,0,0.8-0.3,0.8-0.8c0-0.4-0.3-0.8-0.8-0.8s-0.8,0.3-0.8,0.8C77.1,99.5,77.4,99.9,77.8,99.9z"/>
		<path class="st0" d="M83,99.8c0.4,0,0.6-0.3,0.6-0.6c0-0.4-0.3-0.6-0.6-0.6c-0.4,0-0.6,0.3-0.6,0.6C82.3,99.5,82.6,99.8,83,99.8z"
			/>
		<path class="st0" d="M88.1,99.6c0.3,0,0.5-0.2,0.5-0.5c0-0.3-0.2-0.5-0.5-0.5c-0.3,0-0.5,0.2-0.5,0.5
			C87.6,99.4,87.8,99.6,88.1,99.6z"/>
		<path class="st0" d="M93.2,99.5c0.2,0,0.4-0.2,0.4-0.4c0-0.2-0.2-0.4-0.4-0.4s-0.4,0.2-0.4,0.4C92.9,99.3,93,99.5,93.2,99.5z"/>
		<path class="st0" d="M98.4,99.4c0.1,0,0.3-0.1,0.3-0.3c0-0.1-0.1-0.3-0.3-0.3c-0.1,0-0.3,0.1-0.3,0.3
			C98.1,99.3,98.2,99.4,98.4,99.4z"/>
		<path class="st0" d="M103.5,99.3c0.1,0,0.1-0.1,0.1-0.1c0-0.1-0.1-0.1-0.1-0.1c-0.1,0-0.1,0.1-0.1,0.1
			C103.4,99.2,103.4,99.3,103.5,99.3z"/>
		<path class="st0" d="M108.7,99.2C108.7,99.2,108.7,99.2,108.7,99.2c0.1-0.1,0-0.1,0-0.1C108.6,99.1,108.6,99.1,108.7,99.2
			C108.6,99.2,108.6,99.2,108.7,99.2z"/>
		<path class="st0" d="M23.8,104.3C23.8,104.3,23.8,104.3,23.8,104.3C23.8,104.3,23.8,104.2,23.8,104.3
			C23.8,104.2,23.8,104.3,23.8,104.3C23.8,104.3,23.8,104.3,23.8,104.3z"/>
		<path class="st0" d="M29,104.4c0.1,0,0.1,0,0.1-0.1c0-0.1,0-0.1-0.1-0.1c-0.1,0-0.1,0-0.1,0.1C28.9,104.3,28.9,104.4,29,104.4z"/>
		<path class="st0" d="M34.1,104.5c0.1,0,0.2-0.1,0.2-0.2c0-0.1-0.1-0.2-0.2-0.2c-0.1,0-0.2,0.1-0.2,0.2
			C33.9,104.4,34,104.5,34.1,104.5z"/>
		<path class="st0" d="M39.2,104.5c0.1,0,0.3-0.1,0.3-0.3c0-0.1-0.1-0.3-0.3-0.3c-0.1,0-0.3,0.1-0.3,0.3
			C39,104.4,39.1,104.5,39.2,104.5z"/>
		<path class="st0" d="M44.4,104.6c0.2,0,0.4-0.2,0.4-0.4c0-0.2-0.2-0.4-0.4-0.4c-0.2,0-0.4,0.2-0.4,0.4
			C44,104.5,44.2,104.6,44.4,104.6z"/>
		<path class="st0" d="M49.5,104.7c0.2,0,0.4-0.2,0.4-0.4c0-0.2-0.2-0.4-0.4-0.4c-0.2,0-0.4,0.2-0.4,0.4
			C49.1,104.5,49.3,104.7,49.5,104.7z"/>
		<path class="st0" d="M54.7,104.8c0.3,0,0.5-0.2,0.5-0.5c0-0.3-0.2-0.5-0.5-0.5c-0.3,0-0.5,0.2-0.5,0.5
			C54.2,104.5,54.4,104.8,54.7,104.8z"/>
		<path class="st0" d="M59.8,104.8c0.3,0,0.5-0.2,0.5-0.5c0-0.3-0.2-0.5-0.5-0.5s-0.5,0.2-0.5,0.5C59.3,104.6,59.5,104.8,59.8,104.8
			z"/>
		<path class="st0" d="M65,104.8c0.3,0,0.5-0.2,0.5-0.5s-0.2-0.5-0.5-0.5c-0.3,0-0.5,0.2-0.5,0.5S64.7,104.8,65,104.8z"/>
		<path class="st0" d="M70.1,104.8c0.3,0,0.5-0.2,0.5-0.5c0-0.3-0.2-0.5-0.5-0.5c-0.3,0-0.5,0.2-0.5,0.5
			C69.6,104.6,69.8,104.8,70.1,104.8z"/>
		<path class="st0" d="M75.2,104.8c0.3,0,0.5-0.2,0.5-0.5c0-0.3-0.2-0.5-0.5-0.5s-0.5,0.2-0.5,0.5C74.7,104.5,75,104.8,75.2,104.8z"
			/>
		<path class="st0" d="M80.4,104.7c0.2,0,0.4-0.2,0.4-0.4c0-0.2-0.2-0.4-0.4-0.4c-0.2,0-0.4,0.2-0.4,0.4
			C80,104.5,80.1,104.7,80.4,104.7z"/>
		<path class="st0" d="M85.5,104.6c0.2,0,0.4-0.2,0.4-0.4c0-0.2-0.2-0.4-0.4-0.4c-0.2,0-0.4,0.2-0.4,0.4
			C85.2,104.5,85.3,104.6,85.5,104.6z"/>
		<path class="st0" d="M90.7,104.5c0.1,0,0.3-0.1,0.3-0.3c0-0.1-0.1-0.3-0.3-0.3s-0.3,0.1-0.3,0.3C90.4,104.4,90.5,104.5,90.7,104.5
			z"/>
		<path class="st0" d="M95.8,104.5c0.1,0,0.2-0.1,0.2-0.2c0-0.1-0.1-0.2-0.2-0.2c-0.1,0-0.2,0.1-0.2,0.2
			C95.6,104.4,95.7,104.5,95.8,104.5z"/>
		<path class="st0" d="M101,104.4c0.1,0,0.1,0,0.1-0.1c0-0.1,0-0.1-0.1-0.1c-0.1,0-0.1,0-0.1,0.1C100.9,104.3,100.9,104.4,101,104.4
			z"/>
		<path class="st0" d="M106.1,104.3C106.1,104.3,106.1,104.3,106.1,104.3C106.1,104.3,106.1,104.2,106.1,104.3
			C106.1,104.2,106.1,104.3,106.1,104.3C106.1,104.3,106.1,104.3,106.1,104.3z"/>
		<path class="st0" d="M31.5,109.5C31.5,109.5,31.6,109.4,31.5,109.5C31.6,109.4,31.5,109.4,31.5,109.5
			C31.5,109.4,31.5,109.4,31.5,109.5C31.5,109.4,31.5,109.5,31.5,109.5z"/>
		<path class="st0" d="M36.7,109.5C36.7,109.5,36.8,109.5,36.7,109.5c0.1-0.1,0-0.2,0-0.2C36.6,109.3,36.6,109.4,36.7,109.5
			C36.6,109.5,36.6,109.5,36.7,109.5z"/>
		<path class="st0" d="M41.8,109.6c0.1,0,0.1-0.1,0.1-0.1c0-0.1-0.1-0.1-0.1-0.1c-0.1,0-0.1,0.1-0.1,0.1
			C41.7,109.5,41.7,109.6,41.8,109.6z"/>
		<path class="st0" d="M47,109.6c0.1,0,0.2-0.1,0.2-0.2c0-0.1-0.1-0.2-0.2-0.2c-0.1,0-0.2,0.1-0.2,0.2
			C46.8,109.5,46.8,109.6,47,109.6z"/>
		<path class="st0" d="M52.1,109.6c0.1,0,0.2-0.1,0.2-0.2c0-0.1-0.1-0.2-0.2-0.2c-0.1,0-0.2,0.1-0.2,0.2
			C51.9,109.5,52,109.6,52.1,109.6z"/>
		<path class="st0" d="M57.2,109.7c0.1,0,0.2-0.1,0.2-0.2c0-0.1-0.1-0.2-0.2-0.2c-0.1,0-0.2,0.1-0.2,0.2
			C57,109.5,57.1,109.7,57.2,109.7z"/>
		<path class="st0" d="M62.4,109.7c0.1,0,0.3-0.1,0.3-0.3c0-0.1-0.1-0.3-0.3-0.3c-0.1,0-0.3,0.1-0.3,0.3
			C62.1,109.6,62.2,109.7,62.4,109.7z"/>
		<path class="st0" d="M67.5,109.7c0.1,0,0.2-0.1,0.2-0.2c0-0.1-0.1-0.2-0.2-0.2c-0.1,0-0.2,0.1-0.2,0.2
			C67.3,109.5,67.4,109.7,67.5,109.7z"/>
		<path class="st0" d="M72.7,109.6c0.1,0,0.2-0.1,0.2-0.2c0-0.1-0.1-0.2-0.2-0.2s-0.2,0.1-0.2,0.2C72.4,109.5,72.5,109.6,72.7,109.6
			z"/>
		<path class="st0" d="M77.8,109.6c0.1,0,0.2-0.1,0.2-0.2c0-0.1-0.1-0.2-0.2-0.2c-0.1,0-0.2,0.1-0.2,0.2
			C77.6,109.5,77.7,109.6,77.8,109.6z"/>
		<path class="st0" d="M83,109.6c0.1,0,0.1-0.1,0.1-0.1c0-0.1-0.1-0.1-0.1-0.1c-0.1,0-0.1,0.1-0.1,0.1
			C82.8,109.5,82.9,109.6,83,109.6z"/>
		<path class="st0" d="M88.1,109.5C88.1,109.5,88.2,109.5,88.1,109.5c0.1-0.1,0-0.2,0-0.2C88,109.3,88,109.4,88.1,109.5
			C88,109.5,88,109.5,88.1,109.5z"/>
		<path class="st0" d="M93.2,109.5C93.3,109.5,93.3,109.4,93.2,109.5C93.3,109.4,93.3,109.4,93.2,109.5
			C93.2,109.4,93.2,109.4,93.2,109.5C93.2,109.4,93.2,109.5,93.2,109.5z"/>
		<path class="st0" d="M44.4,114.6C44.4,114.6,44.4,114.6,44.4,114.6C44.4,114.6,44.4,114.5,44.4,114.6
			C44.4,114.5,44.4,114.6,44.4,114.6C44.4,114.6,44.4,114.6,44.4,114.6z"/>
		<path class="st0" d="M49.5,114.6C49.5,114.6,49.6,114.6,49.5,114.6C49.6,114.5,49.5,114.5,49.5,114.6
			C49.5,114.5,49.5,114.5,49.5,114.6C49.5,114.6,49.5,114.6,49.5,114.6z"/>
		<path class="st0" d="M54.7,114.6C54.7,114.6,54.7,114.6,54.7,114.6C54.7,114.5,54.7,114.5,54.7,114.6
			C54.6,114.5,54.6,114.5,54.7,114.6C54.6,114.6,54.6,114.6,54.7,114.6z"/>
		<path class="st0" d="M59.8,114.6C59.8,114.6,59.9,114.6,59.8,114.6c0.1-0.1,0-0.1,0-0.1C59.8,114.5,59.8,114.5,59.8,114.6
			C59.8,114.6,59.8,114.6,59.8,114.6z"/>
		<path class="st0" d="M65,114.6C65,114.6,65,114.6,65,114.6c0.1-0.1,0-0.1,0-0.1C64.9,114.5,64.9,114.5,65,114.6
			C64.9,114.6,64.9,114.6,65,114.6z"/>
		<path class="st0" d="M70.1,114.6C70.1,114.6,70.2,114.6,70.1,114.6c0.1-0.1,0-0.1,0-0.1C70.1,114.5,70,114.5,70.1,114.6
			C70,114.6,70.1,114.6,70.1,114.6z"/>
		<path class="st0" d="M75.2,114.6C75.3,114.6,75.3,114.6,75.2,114.6C75.3,114.5,75.3,114.5,75.2,114.6
			C75.2,114.5,75.2,114.5,75.2,114.6C75.2,114.6,75.2,114.6,75.2,114.6z"/>
		<path class="st0" d="M80.4,114.6C80.4,114.6,80.4,114.6,80.4,114.6C80.4,114.5,80.4,114.5,80.4,114.6
			C80.4,114.5,80.4,114.5,80.4,114.6C80.4,114.6,80.4,114.6,80.4,114.6z"/>
		<path class="st0" d="M85.5,114.6C85.5,114.6,85.5,114.6,85.5,114.6C85.5,114.6,85.5,114.5,85.5,114.6
			C85.5,114.5,85.5,114.6,85.5,114.6C85.5,114.6,85.5,114.6,85.5,114.6z"/>
	</g>
	<g>
		<g>
			<path class="st0" d="M50.1,100.3l-0.9-9.2c-1.2-11.4-3.3-11.4-4.2-11.4c-3,0-8.9,3.6-14.7,7.5l-8.5,5.6l4.1-9.3
				c2.9-6.7,2.4-9.2,1.9-10c-0.9-1.4-3.8-2-8.8-2c-1.4,0-2.9,0.1-4.7,0.2L4,72.2l8.2-6c7.5-5.6,8.9-8.5,8.8-9.9
				c-0.2-1.4-2.1-3.9-10.4-7.7L0.5,44l11-1.2c9-1,11.4-2.1,12.1-2.6c-0.2-0.6-1.4-2.5-6.9-6.8L4.9,24.3l14.4,3.9
				c6.6,1.8,10.7,2.6,13.5,2.6c1.7,0,2.5-0.3,2.7-0.6c0.4-0.6,0.9-3.1-3.1-12.8L26.6,3.4L37.2,14c6.3,6.3,10,7.6,12.1,7.6
				c1,0,4.2,0,6.5-9.4L58,3.3l3.5,8.5c1.4,3.4,3.4,7.4,5.8,7.4c1.4,0,4.8-1.2,10.7-8.9l7.5-9.8l-2.1,12.2
				c-1.3,7.6-0.6,10.4,0.2,11.4c0.2,0.2,0.7,0.8,2.5,0.8c3.4,0,8.9-1.9,12.8-3.4l10.5-4l-7.1,8.7c-3.5,4.2-3.8,5.9-3.9,6.3
				c0.4,0.2,1.9,1,7.4,1c0.4,0,0.8,0,1.2,0l9.2-0.2l-7.3,5.5c-5.3,4-8,7.1-7.8,9.2c0.1,1.9,2.6,4.3,7.4,7.2l7.3,4.3l-8.4,1.3
				c-8.8,1.3-13.3,3.1-14.6,5.6c-1.3,2.4-0.4,6.6,2.7,13.3l3.4,7.2l-7.3-3.2c-8-3.5-14.4-5.9-19.4-5.9c-5.4,0-10.4,2.5-17.4,14.7
				L50.1,100.3z M44.9,73.7c5.3,0,7.7,4.3,8.9,8.9c5.7-7.7,11.3-11,18.3-11c4.5,0,9.4,1.3,15.2,3.6c-1.6-5.1-1.5-8.8,0.2-11.9
				c2-3.8,6.2-5.9,11.9-7.4c-2.4-2.1-4.2-4.7-4.4-7.8c-0.2-3.4,1.7-6.6,4.4-9.4c-3-0.5-5.4-1.6-6.5-4c-0.8-1.6-0.7-3.4,0-5.3
				c-2.8,0.8-5,1.1-6.8,1.1c-3.1,0-5.5-1-7.1-2.9c-1.4-1.7-2.2-3.9-2.3-7c-3.3,3-6.4,4.4-9.3,4.4c-3.6,0-6.2-2.2-8.1-4.7
				c-2.4,4.8-5.7,7.2-9.9,7.2c-2.5,0-5.1-0.9-8-2.6c0.8,3.8,0.5,6.5-0.8,8.5c-2.2,3.3-6.4,3.3-7.7,3.3c-1.3,0-2.8-0.1-4.5-0.4
				c1.2,1.9,1.7,3.7,1.2,5.5c-0.8,2.9-3.6,4.5-8.4,5.6c3.2,2.2,5.5,4.9,5.9,8.2c0.4,3.6-1.7,6.9-4.7,9.9c4.1,0.3,8.2,1.4,10.4,4.6
				c1.3,2,1.7,4.5,1.2,7.6C38.4,75.1,41.9,73.7,44.9,73.7z"/>
		</g>
		<path class="st1" d="M53.6,89.3c-1.8-18-6.7-17.3-23.6-6.1c6.3-14.4,0.8-17-14.6-16.1C29.3,56.9,29,51.4,13.2,44.4
			c16.8-1.8,19.7-4.6,6.7-14.8c20.1,5.4,24.3,3.5,16.6-14.9c15.9,15.8,21.3,6.3,23.6-3.2c3.2,7.7,8.3,16.6,21.6-0.9
			c-3.1,17.5,2.8,18.4,19.6,12.1c-8,9.8-5.2,12.4,7.1,12.2c-11.6,8.8-12.5,14.1-0.1,21.4C91,58.8,86.7,63.2,94.2,79.2
			C73.3,70.1,65,69.5,53.6,89.3z"/>
	</g>
</g>
<path class="st2" d="M75.5,49.3c-0.7-2.4-2-4.3-4-5.5c-1.9-1.2-4-1.6-6.2-0.9c-2.2,0.6-3.7,2-4.7,4.1c-1,2.1-1.1,4.4-0.4,6.9
	c0.7,2.4,2,4.3,3.9,5.5c2,1.2,4,1.5,6.2,0.9c2.2-0.6,3.8-2,4.7-4.2C76,54,76.2,51.7,75.5,49.3z M70.9,53.6c-0.4,1-1,1.7-2,1.9
	c-0.4,0.1-0.8,0.2-1.2,0.1c-0.3-0.4-0.5-0.9-0.6-1.5c-0.3-1.2-0.3-2.3,0.1-3.4c0.4-1.1,1.1-1.7,2.1-2c0.3-0.1,0.7-0.1,1-0.1
	c0.3,0.5,0.6,1,0.7,1.6c0.2,0.6,0.2,1.2,0.2,1.7C71.1,52.6,71,53.1,70.9,53.6z"/>
<path class="st3" d="M58.8,58.2l2.5,1.6l2.8,5.1c-1.9,0.5-3.6,0.9-5.2,1.2c-1.5,0.2-2.9,0.4-4.1,0.3c-1.1,0-2.1-0.2-3-0.4
	c-0.9-0.2-1.7-0.6-2.4-1l-1.7-1c-1.4-0.7-2.5-1.6-3.3-2.9l0,0c-0.1-0.1-0.2-0.3-0.2-0.5c-0.1-0.2-0.1-0.4-0.2-0.7
	c-0.3-1.1-0.3-2.3,0-3.6c0.3-1.3,0.9-2.7,1.8-4.2l0,0c0.7-1.1,1.5-2.2,2.4-3.4s2.1-2.4,3.4-3.6l0.1,0.2l2.5,1.6l2.9,5.6
	c-0.8,0.7-1.6,1.3-2.2,1.9c-0.6,0.6-1.1,1.2-1.5,1.7c-0.4,0.7-0.8,1.2-1,1.8c-0.2,0.5-0.2,1-0.2,1.4c0.1,0,0.2,0,0.4,0
	c0.1,0,0.3,0,0.4,0c0.6,0,1.3,0,1.9-0.1c0.7-0.1,1.4-0.2,2.1-0.5c0.1,0,0.2-0.1,0.3-0.1c0.1,0,0.3-0.1,0.5-0.1
	c0.2,0,0.3-0.1,0.5-0.2c0.1-0.1,0.3-0.1,0.3-0.1L58.8,58.2z M58.3,59.4c-1.8,0.6-3.5,0.9-5.1,0.9c-2.4,0-3.8-0.8-4.2-2.3
	c-0.3-1.2,0.1-2.6,1.2-4.3c0.8-1.2,1.9-2.3,3.1-3.3l-1.9-3.6c-1.8,1.7-3.4,3.7-4.6,5.7c-1.7,2.8-2.2,5.2-1.7,7.1
	c0.1,0.4,0.2,0.6,0.3,0.8c1.2,2.1,3.5,3.2,6.9,3.3c2.2,0.1,4.8-0.3,7.8-1.2L58.3,59.4z"/>
<polygon class="st2" points="88.3,36.3 84.4,37.4 88.6,48.9 80.7,38.8 76.6,40.1 82.3,56.9 85.9,56 81.7,43.4 90.6,54.4 94.4,52.9 
	"/>
<path class="st3" d="M74.5,44.5c1.1,0.7,2,1.6,2.7,2.6s1.3,2.2,1.7,3.6c0.8,2.7,0.6,5.3-0.5,7.6c-1.1,2.4-2.9,4-5.3,4.7
	c-1.2,0.3-2.4,0.4-3.6,0.3c-1.2-0.2-2.3-0.6-3.4-1.3l-1.7-1.1c-0.2-0.1-0.3-0.2-0.5-0.2c-0.2-0.1-0.3-0.2-0.4-0.3
	c-1.1-0.7-2-1.6-2.7-2.6c-0.7-1-1.3-2.2-1.7-3.6c-0.4-1.4-0.5-2.7-0.5-4c0.1-1.3,0.4-2.5,1-3.7c0.5-1.2,1.3-2.2,2.2-3
	c0.9-0.8,2-1.3,3.2-1.7c2.5-0.7,4.8-0.3,7,1.1c0.1,0.1,0.3,0.2,0.4,0.3c0.1,0.1,0.3,0.2,0.4,0.3L74.5,44.5z M75.5,49.3
	c-0.7-2.4-2-4.3-4-5.5c-1.9-1.2-4-1.6-6.2-0.9c-2.2,0.6-3.7,2-4.7,4.1c-1,2.1-1.1,4.4-0.4,6.9c0.7,2.4,2,4.3,3.9,5.5
	c2,1.2,4,1.5,6.2,0.9c2.2-0.6,3.8-2,4.7-4.2C76,54,76.2,51.7,75.5,49.3z M71.9,50c0.4,1.4,0.4,2.8-0.1,4.1c-0.5,1.3-1.4,2.2-2.7,2.6
	c-1.3,0.4-2.4,0.2-3.5-0.6c-1.1-0.7-1.8-1.8-2.2-3.2c-0.4-1.4-0.4-2.8,0.1-4.1c0.5-1.4,1.4-2.2,2.7-2.6c1.2-0.4,2.4-0.1,3.5,0.6
	C70.8,47.6,71.5,48.6,71.9,50z M70.9,50.3c-0.2-0.6-0.4-1.1-0.7-1.6c-0.3,0-0.7,0-1,0.1c-1,0.3-1.7,1-2.1,2c-0.4,1-0.5,2.1-0.1,3.4
	c0.2,0.6,0.4,1.1,0.6,1.5c0.4,0,0.8,0,1.2-0.1c1-0.3,1.7-0.9,2-1.9c0.2-0.5,0.3-1,0.3-1.6C71.2,51.5,71.1,50.9,70.9,50.3z"/>
<path class="st2" d="M58.3,59.4c-1.8,0.6-3.5,0.9-5.1,0.9c-2.4,0-3.8-0.8-4.2-2.3c-0.3-1.2,0.1-2.6,1.2-4.3c0.8-1.2,1.9-2.3,3.1-3.3
	l-1.9-3.6c-1.8,1.7-3.4,3.7-4.6,5.7c-1.7,2.8-2.2,5.2-1.7,7.1c0.1,0.4,0.2,0.6,0.3,0.8c1.2,2.1,3.5,3.2,6.9,3.3
	c2.2,0.1,4.8-0.3,7.8-1.2L58.3,59.4z"/>
<path class="st3" d="M88.9,35.1l2.5,1.6l6.9,18.5l-5.4,2.1l-2.5-1.6l-0.1,0l-2.5-3l1.9,5.7l-5.5,1.5l-2.5-1.6l-0.1,0l-6.4-19
	l5.8-1.8l0.1,0.2l2.4,1.5l0.7,0.9L83,36.6l5.9-1.6L88.9,35.1z M88.3,36.3l-3.9,1.1l4.3,11.5l-7.9-10.1l-4.1,1.3l5.7,16.9l3.6-1
	l-4.2-12.5l8.9,11l3.8-1.5L88.3,36.3z"/>
<g>
	<path class="st4" d="M6.7,51.2c0.1,0.1,0.1,0.3,0.1,0.5c0,0.4,0,0.8,0,1.3c0,0.5,0,1,0,1.5c0,0.5,0,1.1,0.1,1.6
		c0,0.6,0,1.1,0.1,1.6c0,0.5,0.1,1,0.1,1.5c0,0.5,0.1,0.9,0.1,1.3c0,0.1,0,0.2-0.1,0.3c-0.1,0.1-0.2,0.1-0.4,0.1c-0.2,0-0.4,0-0.6,0
		c-0.2,0-0.4,0-0.6-0.1c-0.2,0-0.3-0.1-0.4-0.2c-0.1-0.1-0.2-0.2-0.2-0.5c-0.1-0.3-0.1-0.6-0.2-1.1s-0.1-0.9-0.2-1.5
		c-0.1-0.5-0.1-1.1-0.2-1.7c-0.1-0.6-0.1-1.2-0.2-1.7s-0.1-1.1-0.1-1.6c0-0.5-0.1-1-0.1-1.3c0-0.2,0.1-0.4,0.2-0.5
		c0.1-0.1,0.3-0.1,0.5-0.1c0.3,0,0.5,0,0.9,0.1s0.6,0.1,0.8,0.2C6.5,51,6.6,51.1,6.7,51.2z"/>
	<path class="st4" d="M8.2,57.6c0.1-0.1,0.3-0.1,0.5-0.2c0.2,0,0.3-0.1,0.5-0.1c0.2,0,0.3,0,0.4,0.1c0.8,0.2,1.4,0.3,1.9,0.3
		c0.5,0,0.9-0.2,1-0.4c0.1-0.1,0.1-0.2,0-0.2c-0.1-0.1-0.2-0.1-0.4-0.2c-0.2-0.1-0.4-0.2-0.6-0.2c-0.3-0.1-0.5-0.2-0.8-0.2
		c-0.3-0.1-0.6-0.2-0.8-0.3S9.3,56,9.1,55.9c-0.3-0.1-0.5-0.2-0.7-0.4s-0.4-0.4-0.6-0.6s-0.3-0.5-0.4-0.8c-0.1-0.3-0.1-0.6-0.1-0.9
		c0-0.3,0-0.6,0.1-1c0.1-0.4,0.2-0.7,0.3-1.1c0.1-0.4,0.3-0.7,0.5-1c0.2-0.3,0.4-0.6,0.7-0.9C8.9,49.2,9,49.1,9.2,49
		c0.1-0.1,0.3-0.2,0.5-0.3c0.2-0.1,0.4-0.1,0.6-0.2c0.2,0,0.5-0.1,0.7-0.1c0.4,0,0.8,0.1,1.2,0.2c0.4,0.1,0.8,0.2,1.1,0.4
		c0.2,0.1,0.4,0.2,0.5,0.3c0.1,0.1,0.2,0.2,0.3,0.4c0.1,0.1,0.1,0.3,0.2,0.4c0,0.1,0.1,0.3,0.1,0.4c0,0.2,0,0.4,0.1,0.7
		c0,0.3,0,0.5,0,0.8c0,0.3,0,0.6,0,0.8c0,0.3,0,0.5-0.1,0.7c0,0.2-0.1,0.3-0.2,0.4c-0.1,0.1-0.2,0.1-0.5,0.1
		c-1.2-0.1-1.8-0.4-1.9-1.1c0-0.1,0-0.3,0-0.5c0-0.2,0-0.4,0-0.6c0-0.2,0-0.4,0-0.5c0-0.2,0-0.3-0.1-0.4c0-0.1-0.1-0.1-0.2-0.1
		c-0.1,0-0.2,0.1-0.3,0.2c-0.1,0.1-0.2,0.3-0.3,0.4c-0.1,0.2-0.2,0.4-0.3,0.6c-0.1,0.2-0.2,0.5-0.2,0.7c0,0.2-0.1,0.5,0,0.7
		c0,0.2,0.1,0.4,0.2,0.6c0.1,0.2,0.3,0.3,0.5,0.5c0.3,0.2,0.6,0.3,0.9,0.4c0.3,0.1,0.7,0.2,1,0.3c0.3,0.1,0.6,0.2,0.9,0.3
		c0.3,0.1,0.5,0.2,0.8,0.4c0.2,0.1,0.4,0.3,0.5,0.5c0.1,0.2,0.1,0.4,0.1,0.7c0,0.2-0.1,0.4-0.2,0.6c-0.1,0.2-0.2,0.5-0.4,0.7
		c-0.2,0.2-0.4,0.4-0.7,0.6c-0.3,0.2-0.7,0.4-1.1,0.5c-0.6,0.2-1.3,0.2-1.9,0.2s-1.4-0.3-2.2-0.7c-0.4-0.2-0.7-0.4-0.7-0.5
		c-0.1-0.1,0-0.3,0.1-0.4C7.9,57.8,8,57.7,8.2,57.6z"/>
	<path class="st4" d="M21.4,47.1c0.1,0.1,0.1,0.3,0.1,0.5c0,0.4,0,0.8,0,1.3c0,0.5,0,1,0,1.5c0,0.5,0,1.1,0.1,1.6
		c0,0.6,0,1.1,0.1,1.6s0.1,1,0.1,1.5c0,0.5,0.1,0.9,0.1,1.3c0,0.1,0,0.2-0.1,0.3c-0.1,0.1-0.2,0.1-0.4,0.1c-0.2,0-0.4,0-0.6,0
		c-0.2,0-0.4,0-0.6-0.1c-0.2,0-0.3-0.1-0.4-0.2c-0.1-0.1-0.1-0.2-0.2-0.5c-0.1-0.3-0.1-0.6-0.2-1.1c-0.1-0.4-0.1-0.9-0.2-1.5
		C19,53,19,52.5,18.9,51.9c-0.1-0.6-0.1-1.2-0.2-1.7c-0.1-0.6-0.1-1.1-0.1-1.6c0-0.5-0.1-1-0.1-1.3c0-0.2,0.1-0.4,0.2-0.5
		c0.1-0.1,0.3-0.1,0.5-0.1c0.3,0,0.5,0,0.9,0.1c0.3,0,0.6,0.1,0.8,0.2C21.2,46.9,21.3,47,21.4,47.1z"/>
	<path class="st4" d="M28.3,46c-0.3,0.1-0.7,0.3-1.1,0.4c0,0.7,0,1.4,0.1,2.2c0,0.7,0,1.5,0.1,2.2s0.1,1.4,0.1,2.1
		c0,0.7,0.1,1.3,0.1,1.9c0,0.1,0,0.2,0,0.2c0,0.1-0.1,0.1-0.2,0.1c-0.1,0-0.2,0-0.4,0c-0.1,0-0.3,0-0.5,0c-0.2,0-0.3,0-0.5,0
		c-0.1,0-0.3-0.1-0.4-0.1c-0.1-0.1-0.2-0.1-0.3-0.2s-0.1-0.2-0.1-0.4c-0.1-0.4-0.2-0.8-0.2-1.4s-0.2-1.2-0.2-1.8
		c-0.1-0.6-0.1-1.3-0.2-1.9s-0.1-1.2-0.1-1.8c-0.2,0.1-0.4,0.2-0.6,0.3c-0.2,0.1-0.4,0.2-0.5,0.2c-0.2,0.1-0.3,0.2-0.5,0.2
		c-0.1,0-0.3-0.1-0.5-0.2c-0.2-0.1-0.4-0.3-0.6-0.5c-0.2-0.2-0.4-0.4-0.5-0.5c-0.1-0.2-0.2-0.3-0.2-0.3c0-0.1,0.1-0.1,0.2-0.2
		c0.4-0.2,0.9-0.4,1.5-0.7c0.6-0.2,1.1-0.5,1.7-0.7c0.6-0.2,1.2-0.4,1.7-0.6s1.1-0.4,1.5-0.5c0.2-0.1,0.4-0.1,0.5-0.1
		c0.1,0,0.2,0.1,0.3,0.1c0.2,0.1,0.4,0.3,0.5,0.5c0.2,0.2,0.3,0.4,0.4,0.5c0.1,0.2,0.1,0.3,0.1,0.4c0,0.1-0.2,0.2-0.4,0.2
		C28.9,45.7,28.6,45.9,28.3,46z"/>
	<path class="st4" d="M37.2,47.2c0.1-0.6,0.2-1.2,0.2-1.8c0.1-0.6,0.2-1.1,0.2-1.6c0.1-0.5,0.1-0.8,0.2-1.1c0-0.2,0.1-0.3,0.2-0.4
		c0.1-0.1,0.3-0.1,0.5-0.1c0.2,0,0.4,0,0.6,0c0.2,0,0.4,0,0.6,0.1c0.1,0,0.2,0,0.3,0.1c0.1,0,0.1,0.1,0.2,0.1s0.1,0.1,0.1,0.2
		c0,0.1,0.1,0.2,0.1,0.3c0,0.1,0.1,0.4,0.2,0.7c0.1,0.3,0.1,0.7,0.2,1.1c0.1,0.4,0.2,0.9,0.3,1.4s0.2,1,0.3,1.4
		c0.1-0.4,0.1-0.9,0.2-1.3c0.1-0.5,0.1-0.9,0.2-1.4c0.1-0.5,0.1-0.9,0.2-1.4c0.1-0.5,0.1-0.9,0.2-1.3c0.1-0.4,0.1-0.8,0.2-1.1
		c0.1-0.3,0.1-0.6,0.1-0.8c0-0.3,0.1-0.4,0.2-0.5c0.1-0.1,0.3-0.1,0.6,0c0.2,0,0.4,0.1,0.6,0.1c0.2,0.1,0.4,0.1,0.6,0.2
		c0.2,0.1,0.4,0.3,0.4,0.5c0,0.2,0.1,0.4,0,0.6c-0.1,0.4-0.2,0.9-0.3,1.4c-0.1,0.5-0.2,1.1-0.3,1.6c-0.1,0.6-0.2,1.1-0.3,1.7
		c-0.1,0.6-0.2,1.1-0.3,1.7c-0.1,0.5-0.2,1.1-0.2,1.5c-0.1,0.5-0.1,0.9-0.2,1.2c0,0.2-0.1,0.3-0.2,0.4c-0.1,0.1-0.3,0.1-0.6,0.2
		c-0.1,0-0.3,0-0.4,0c-0.1,0-0.2,0-0.3,0s-0.2,0-0.3,0s-0.2,0-0.3,0c-0.2,0-0.4-0.1-0.6-0.2c-0.1-0.1-0.2-0.2-0.3-0.4
		c-0.1-0.2-0.2-0.3-0.3-0.6c-0.1-0.2-0.2-0.5-0.3-0.7c-0.1-0.3-0.2-0.5-0.3-0.8c-0.1-0.3-0.2-0.6-0.3-0.8c-0.1,0.4-0.2,0.8-0.2,1.2
		C39,49,39,49.4,38.9,49.8c-0.1,0.4-0.1,0.8-0.2,1.1c-0.1,0.3-0.1,0.6-0.1,0.8c0,0.2-0.1,0.3-0.2,0.4c-0.1,0.1-0.2,0.1-0.4,0.1
		c-0.2,0-0.5,0-0.7,0c-0.2,0-0.5,0-0.7,0c-0.2,0-0.4-0.1-0.5-0.1c-0.1-0.1-0.2-0.2-0.3-0.4c-0.2-0.3-0.3-0.6-0.5-1
		c-0.2-0.4-0.3-0.8-0.5-1.3c-0.2-0.5-0.4-1-0.5-1.5c-0.2-0.5-0.4-1.1-0.5-1.6s-0.3-1-0.5-1.6c-0.2-0.5-0.3-1-0.4-1.4
		c-0.1-0.2-0.1-0.4,0-0.5c0.1-0.1,0.2-0.1,0.5-0.2c0.3,0,0.6,0,0.8,0c0.2,0,0.5,0,0.7,0.1c0.1,0,0.3,0.1,0.3,0.2
		c0.1,0.1,0.2,0.2,0.2,0.3s0.1,0.2,0.2,0.3c0,0.1,0.1,0.2,0.1,0.3c0,0.2,0.1,0.5,0.2,0.9c0.1,0.4,0.2,0.8,0.3,1.3
		c0.1,0.5,0.2,1,0.4,1.5c0.1,0.5,0.3,1,0.4,1.5C37.1,48.4,37.1,47.8,37.2,47.2z"/>
	<path class="st4" d="M51.6,39c0.2,0.2,0.4,0.5,0.5,0.8c0.2,0.5,0.4,1.1,0.6,1.8c0.1,0.7,0.2,1.4,0.2,2.1c0,0.7-0.1,1.4-0.2,2
		c-0.1,0.7-0.4,1.3-0.7,1.8c-0.2,0.3-0.5,0.6-0.8,0.8c-0.3,0.2-0.7,0.3-1.2,0.4c-0.3,0.1-0.6,0.1-0.9,0.1c-0.3,0-0.6,0-0.9-0.1
		c-0.2,0-0.5-0.1-0.7-0.2c-0.2-0.1-0.5-0.3-0.6-0.4c-0.3-0.3-0.5-0.7-0.8-1.1c-0.2-0.4-0.4-0.9-0.5-1.4c-0.1-0.5-0.2-1-0.3-1.6
		c0-0.5,0-1.1,0.1-1.6c0.1-0.5,0.2-1.1,0.4-1.6c0.2-0.5,0.4-1,0.7-1.5c0.2-0.3,0.5-0.5,0.8-0.7c0.3-0.2,0.7-0.3,1-0.4
		c0.5-0.1,0.9-0.1,1.3,0c0.4,0,0.8,0.1,1.1,0.3C51.1,38.6,51.4,38.8,51.6,39z M48.7,40.5c-0.1,0.2-0.3,0.6-0.4,0.9
		c-0.1,0.4-0.2,0.8-0.3,1.2S48,43.5,48,43.9c0,0.4,0,0.8,0.1,1.2s0.1,0.8,0.3,1.1c0.1,0.3,0.2,0.6,0.4,0.8c0.2,0.2,0.3,0.3,0.5,0.3
		c0.2,0,0.3-0.1,0.5-0.2c0.1-0.2,0.3-0.4,0.4-0.7c0.1-0.3,0.2-0.7,0.2-1.1c0.1-0.4,0.1-0.9,0.1-1.3c0-0.4,0-0.8-0.1-1.3
		c-0.1-0.5-0.1-0.9-0.2-1.2c-0.1-0.4-0.2-0.7-0.4-1s-0.3-0.4-0.5-0.4C49,40.1,48.9,40.3,48.7,40.5z"/>
	<path class="st4" d="M56.5,45.2c0,0.5,0.1,0.9,0.1,1.3c0,0.1,0,0.2-0.1,0.3c-0.1,0.1-0.2,0.1-0.4,0.1c-0.2,0-0.4,0-0.6,0
		c-0.2,0-0.3,0-0.5,0c-0.2,0-0.3-0.1-0.4-0.2c-0.1-0.1-0.2-0.3-0.2-0.5c0-0.2-0.1-0.4-0.1-0.7c-0.1-0.3-0.1-0.7-0.2-1.1
		c-0.1-0.4-0.1-0.8-0.2-1.3c-0.1-0.5-0.1-0.9-0.2-1.4c-0.1-0.5-0.1-0.9-0.2-1.4s-0.1-0.8-0.1-1.2c0-0.4,0-0.7,0-0.9
		c0-0.2,0.1-0.4,0.2-0.5c0.4-0.4,0.9-0.7,1.3-1.1c0.5-0.4,0.9-0.6,1.4-0.9s1-0.4,1.4-0.4c0.5-0.1,0.9,0,1.4,0.3
		c0.4,0.2,0.7,0.5,1,0.7c0.3,0.3,0.6,0.6,0.9,1.1c0.2,0.5,0.3,0.9,0.2,1.3c-0.1,0.6-0.4,1.2-0.9,1.8c-0.5,0.6-1.1,1.2-1.9,1.9
		c0.2,0.2,0.5,0.3,0.8,0.5s0.6,0.3,0.8,0.5c0.3,0.2,0.6,0.3,0.8,0.5c0.3,0.1,0.5,0.3,0.8,0.4c0.2,0.1,0.3,0.2,0.3,0.3
		c0,0.1,0,0.2-0.1,0.3c-0.1,0.1-0.2,0.2-0.3,0.3c-0.1,0-0.2,0.1-0.3,0.2c-0.2,0.1-0.3,0.2-0.5,0.2c-0.2,0-0.5,0-0.8-0.1
		c-0.2-0.1-0.5-0.2-0.7-0.3c-0.3-0.1-0.6-0.3-0.9-0.4c-0.3-0.2-0.6-0.3-0.9-0.5s-0.6-0.4-0.9-0.5C56.4,44.3,56.4,44.8,56.5,45.2z
		 M56.3,40.1c0,0.5,0,1,0,1.5c0.5-0.3,0.9-0.7,1.2-1.1c0.3-0.4,0.6-0.7,0.8-1.1c0.2-0.3,0.3-0.7,0.4-0.9c0.1-0.3,0-0.5,0-0.6
		c-0.2-0.2-0.5-0.2-0.9-0.1c-0.2,0.1-0.5,0.2-0.7,0.3c-0.3,0.1-0.5,0.3-0.8,0.5C56.3,39.2,56.3,39.6,56.3,40.1z"/>
	<path class="st4" d="M67.6,34.9c-0.3,0.1-0.7,0.3-1.1,0.4c0,0.7,0,1.4,0.1,2.2c0,0.7,0,1.5,0.1,2.2c0,0.7,0.1,1.4,0.1,2.1
		c0,0.7,0.1,1.3,0.1,1.9c0,0.1,0,0.2,0,0.2c0,0.1-0.1,0.1-0.2,0.1c-0.1,0-0.2,0-0.4,0c-0.1,0-0.3,0-0.5,0c-0.2,0-0.3,0-0.5,0
		c-0.1,0-0.3-0.1-0.4-0.1c-0.1-0.1-0.2-0.1-0.3-0.2c-0.1-0.1-0.1-0.2-0.1-0.4c-0.1-0.4-0.2-0.8-0.2-1.4c-0.1-0.6-0.2-1.2-0.2-1.8
		c-0.1-0.6-0.1-1.3-0.2-1.9c-0.1-0.6-0.1-1.2-0.1-1.8c-0.2,0.1-0.4,0.2-0.6,0.3s-0.4,0.2-0.5,0.2c-0.2,0.1-0.3,0.2-0.5,0.2
		c-0.1,0-0.3-0.1-0.5-0.2c-0.2-0.1-0.4-0.3-0.6-0.5c-0.2-0.2-0.4-0.4-0.5-0.5c-0.1-0.2-0.2-0.3-0.2-0.3c0-0.1,0.1-0.1,0.2-0.2
		c0.4-0.2,0.9-0.4,1.5-0.7s1.1-0.5,1.7-0.7c0.6-0.2,1.2-0.4,1.7-0.7c0.6-0.2,1.1-0.4,1.5-0.5c0.2-0.1,0.4-0.1,0.5-0.1
		c0.1,0,0.2,0.1,0.3,0.1c0.2,0.1,0.4,0.3,0.5,0.5c0.2,0.2,0.3,0.4,0.4,0.5c0.1,0.2,0.1,0.3,0.1,0.4c0,0.1-0.2,0.2-0.4,0.2
		C68.3,34.6,68,34.8,67.6,34.9z"/>
	<path class="st4" d="M76.6,33.9c0,0.8,0,1.6,0,2.4c0,0.8,0,1.6,0,2.4c0,0.8,0,1.5,0.1,2.2c0,0.1,0,0.2,0,0.2c0,0.1-0.1,0.1-0.2,0.1
		c-0.1,0-0.2,0-0.4,0c-0.1,0-0.3,0-0.5,0c-0.3,0-0.6,0-0.8-0.1c-0.2-0.1-0.3-0.3-0.3-0.6c0-0.3-0.1-0.6-0.1-1c0-0.4-0.1-0.8-0.1-1.3
		c-0.3,0.1-0.6,0.3-0.9,0.4c-0.3,0.1-0.6,0.3-0.9,0.4c0,0.6,0.1,1.1,0.1,1.6c0.1,0.5,0.1,0.9,0.1,1.3c0,0.1,0,0.2-0.1,0.3
		s-0.2,0.1-0.4,0.1c-0.2,0-0.4,0-0.6,0c-0.2,0-0.4,0-0.6-0.1c-0.2,0-0.4-0.1-0.5-0.2s-0.2-0.2-0.2-0.5c0-0.6-0.1-1.2-0.2-2
		c-0.1-0.7-0.2-1.5-0.3-2.3c-0.1-0.8-0.2-1.6-0.4-2.4c-0.1-0.8-0.2-1.5-0.3-2.2c0-0.3,0-0.4,0.1-0.5c0.1-0.1,0.3-0.1,0.5-0.1
		c0.3,0,0.6,0,0.9,0.1c0.3,0,0.6,0.1,0.8,0.2c0.1,0,0.2,0.1,0.3,0.1c0.1,0,0.1,0.1,0.2,0.1c0,0.1,0.1,0.1,0.1,0.2c0,0.1,0,0.2,0,0.3
		c0,0.5,0,1,0,1.7c0,0.6,0.1,1.3,0.1,2c0.3-0.1,0.6-0.2,0.9-0.4c0.3-0.1,0.6-0.2,0.9-0.3c0-0.9-0.1-1.7-0.1-2.6s-0.1-1.6-0.1-2.3
		c0-0.3,0.1-0.4,0.2-0.5s0.3-0.1,0.6-0.1c0.2,0,0.5,0,0.8,0.1c0.3,0,0.5,0.1,0.8,0.2c0.2,0.1,0.4,0.2,0.5,0.3s0.1,0.3,0.1,0.5
		C76.6,32.4,76.6,33.1,76.6,33.9z"/>
	<path class="st4" d="M84,29.5c0.1,0.1,0.1,0.3,0.1,0.5c0,0.4,0,0.8,0,1.3c0,0.5,0,1,0,1.5c0,0.5,0,1.1,0.1,1.6s0,1.1,0.1,1.6
		c0,0.5,0.1,1,0.1,1.5s0.1,0.9,0.1,1.3c0,0.1,0,0.2-0.1,0.3s-0.2,0.1-0.4,0.1c-0.2,0-0.4,0-0.6,0c-0.2,0-0.4,0-0.6-0.1
		c-0.2,0-0.3-0.1-0.4-0.2c-0.1-0.1-0.2-0.2-0.2-0.5c-0.1-0.3-0.1-0.6-0.2-1.1c-0.1-0.4-0.1-0.9-0.2-1.5c-0.1-0.5-0.1-1.1-0.2-1.7
		c-0.1-0.6-0.1-1.2-0.2-1.7c-0.1-0.6-0.1-1.1-0.1-1.6c0-0.5-0.1-1-0.1-1.3c0-0.2,0.1-0.4,0.2-0.5c0.1-0.1,0.3-0.1,0.5-0.1
		c0.3,0,0.5,0,0.9,0.1c0.3,0,0.6,0.1,0.8,0.2C83.8,29.3,84,29.4,84,29.5z"/>
	<path class="st4" d="M90.9,28.4c-0.3,0.1-0.7,0.3-1.1,0.4c0,0.7,0,1.4,0.1,2.2c0,0.7,0,1.5,0.1,2.2c0,0.7,0.1,1.4,0.1,2.1
		c0,0.7,0.1,1.3,0.1,1.9c0,0.1,0,0.2,0,0.2c0,0.1-0.1,0.1-0.2,0.1c-0.1,0-0.2,0-0.4,0c-0.1,0-0.3,0-0.5,0c-0.2,0-0.3,0-0.5,0
		c-0.1,0-0.3-0.1-0.4-0.1c-0.1-0.1-0.2-0.1-0.3-0.2c-0.1-0.1-0.1-0.2-0.1-0.4c-0.1-0.4-0.2-0.8-0.2-1.4c-0.1-0.6-0.2-1.2-0.2-1.8
		c-0.1-0.6-0.1-1.3-0.2-1.9c-0.1-0.6-0.1-1.2-0.1-1.8c-0.2,0.1-0.4,0.2-0.6,0.3s-0.4,0.2-0.5,0.2c-0.2,0.1-0.3,0.2-0.5,0.2
		c-0.1,0-0.3-0.1-0.5-0.2c-0.2-0.1-0.4-0.3-0.6-0.5c-0.2-0.2-0.4-0.4-0.5-0.5c-0.1-0.2-0.2-0.3-0.2-0.3c0-0.1,0.1-0.1,0.2-0.2
		c0.4-0.2,0.9-0.4,1.5-0.7c0.6-0.2,1.1-0.5,1.7-0.7c0.6-0.2,1.2-0.4,1.7-0.7c0.6-0.2,1.1-0.4,1.5-0.5c0.2-0.1,0.4-0.1,0.5-0.1
		c0.1,0,0.2,0.1,0.3,0.1c0.2,0.1,0.4,0.3,0.5,0.5c0.2,0.2,0.3,0.4,0.4,0.5c0.1,0.2,0.1,0.3,0.1,0.4c0,0.1-0.2,0.2-0.4,0.2
		C91.6,28.1,91.3,28.2,90.9,28.4z"/>
</g>
</svg>
